<svg id="Layer_1" data-name="Layer 1" xmlns="http://www.w3.org/2000/svg" viewBox="0 0 107 107"><defs><style>.cls-1{fill:#fff;}.cls-2{fill:none;}</style></defs><title>doors</title><g id="Group_30" data-name="Group 30"><path id="Path_48" data-name="Path 48" class="cls-1" d="M62,27.94a.88.88,0,0,0-.47.11h0l-29,14.43v22L61.43,78.94a1.4,1.4,0,0,0,.7.12c.23,0,.35,0,.35-.23a1.49,1.49,0,0,0,.23-.94V29a1.49,1.49,0,0,0-.23-.94c-.12-.12-.24-.12-.47-.12Zm24,6a1.42,1.42,0,0,0-.94.47l-9.26,9.73A1.58,1.58,0,0,0,78,46.46l.12-.11,9.38-9.74a1.63,1.63,0,0,0,0-2.22,1.5,1.5,0,0,0-1.41-.47ZM17.92,41.54a1.75,1.75,0,0,0-1.76,1.75V63.7a1.84,1.84,0,0,0,1.76,1.88H29.3v-24Zm48,5.51V60a6.72,6.72,0,0,0,4.69-6.45,6.87,6.87,0,0,0-4.69-6.45ZM89.1,52.68H76a1.59,1.59,0,0,0-.35,3.16H89.1a1.59,1.59,0,0,0,.35-3.16ZM76.9,60.07a1.58,1.58,0,0,0-1.4,1.75h0a1.4,1.4,0,0,0,.47.94l9.26,9.74a1.58,1.58,0,0,0,2.23-2.23l-9.38-9.73A1.77,1.77,0,0,0,76.9,60.07Z"/></g><rect class="cls-2" x="0.5" y="0.5" width="106" height="106"/></svg>