<svg id="Layer_1" data-name="Layer 1" xmlns="http://www.w3.org/2000/svg" viewBox="0 0 107 107"><defs><style>.cls-1{fill:#fff;}.cls-2{fill:none;}</style></defs><title>doors</title><g id="Group_32" data-name="Group 32"><path id="Path_57" data-name="Path 57" class="cls-1" d="M79.28,30.56H71v4.25a5,5,0,0,1-10.1,0h0V30.56H46.14v4.25a5,5,0,1,1-10.1,0V30.56H27.72a3,3,0,0,0-3.08,3V46.26H82.36V33.64A3.09,3.09,0,0,0,79.28,30.56ZM41.09,24.89a2.35,2.35,0,0,0-2.35,2.33h0v7.58a2.35,2.35,0,0,0,4.69,0h0V27.23A2.44,2.44,0,0,0,41.09,24.89Zm24.82,0a2.34,2.34,0,0,0-2.34,2.34h0v7.58a2.34,2.34,0,1,0,4.68,0h0V27.23a2.34,2.34,0,0,0-2.34-2.34Z"/><path id="Path_58" data-name="Path 58" class="cls-1" d="M24.64,48.73V79a3.06,3.06,0,0,0,3,3.08H79.28a3.06,3.06,0,0,0,3.08-3V48.73Zm50.5,15.15H67.27V56h7.87Z"/></g><rect class="cls-2" x="0.5" y="0.5" width="106" height="106"/></svg>