<svg id="Layer_1" data-name="Layer 1" xmlns="http://www.w3.org/2000/svg" viewBox="0 0 107 107"><defs><style>.cls-1{fill:#fff;}.cls-2{fill:none;}</style></defs><title>doors</title><path id="Path_59" data-name="Path 59" class="cls-1" d="M91.39,35.25a7.1,7.1,0,1,0-14.2,0,7.55,7.55,0,0,0,2.3,5.3c-1,4.1-11.4,8.4-25.9,8.4-14.8,0-25.3-4.4-26-8.6a7.07,7.07,0,1,0-10-.2l.4.4v37.3a.93.93,0,0,0,.88,1h69a1,1,0,0,0,1-.89V40.55A6.92,6.92,0,0,0,91.39,35.25Zm-7.1-4.1a4.05,4.05,0,0,1,4.1,4v.09a4.19,4.19,0,0,1-1.8,3.4h-.1c-.2.1-.3.2-.5.3l-.3.1-.3.1-.4.1h-1.3l-.5-.1-.3-.1-.3-.1c-.2-.1-.3-.2-.5-.3l-.1-.1a4.05,4.05,0,0,1-1.15-5.63l0-.07A4.35,4.35,0,0,1,84.29,31.15Zm-61.6,0a4.05,4.05,0,0,1,4.1,4v.09a4.19,4.19,0,0,1-1.8,3.4l-.1.1c-.2.1-.3.2-.5.3l-.3.1h-.3l-.4.1h-1.3l-.5-.1-.3-.1L21,39a2.29,2.29,0,0,1-.5-.3h-.1a4.11,4.11,0,0,1-1.1-5.6A4.38,4.38,0,0,1,22.69,31.15Zm-1.6,44.7V42.15h.1l.5.1h.2a4.3,4.3,0,0,0,1.6,0h.2l.5-.1h.1v33.7Zm8.3,0,13-13.1h22.2l13,13.1Zm36-16.1H41.59a.88.88,0,0,0-.7.3l-13.5,13.6V45.15c4.6,4.1,14.4,6.8,26.3,6.8,11.7,0,21.4-2.6,26-6.5v28.3l-13.6-13.7A.77.77,0,0,0,65.39,59.75ZM86,42.15v33.7h-3.3V42.15h.1l.5.1h.2a4.3,4.3,0,0,0,1.6,0h.2l.6-.1Z"/><rect class="cls-2" x="0.5" y="0.5" width="106" height="106"/></svg>