<svg id="Layer_1" data-name="Layer 1" xmlns="http://www.w3.org/2000/svg" viewBox="0 0 106 106"><defs><style>.cls-1{fill:none;}.cls-2{fill:#fff;}</style></defs><title>doors</title><rect class="cls-1" width="106" height="106"/><path class="cls-2" d="M26.94,53.31a5,5,0,0,0-4.71,5.1,5.29,5.29,0,0,0,2.2,4.25,8.4,8.4,0,0,0-4.59,4,26.14,26.14,0,0,0-2.27,6.55l1.35.37a25.87,25.87,0,0,1,2.16-6.22,6.51,6.51,0,0,1,11.72,0,25.73,25.73,0,0,1,2.14,6.22h1.37a25.73,25.73,0,0,1,2.14-6.22,6.52,6.52,0,0,1,11.73,0,25.73,25.73,0,0,1,2.14,6.22h1.36a25.8,25.8,0,0,1,2.15-6.22,6.51,6.51,0,0,1,11.72,0,26.24,26.24,0,0,1,2.15,6.22h1.36a26.24,26.24,0,0,1,2.15-6.22,6.52,6.52,0,0,1,11.73,0,26.17,26.17,0,0,1,2.14,6.22l1.35-.37a26.14,26.14,0,0,0-2.27-6.55,8.38,8.38,0,0,0-4.58-4,5.29,5.29,0,0,0,2.2-4.25,4.72,4.72,0,1,0-9.41,0,5.27,5.27,0,0,0,2.19,4.27,8.38,8.38,0,0,0-4.58,4,19.06,19.06,0,0,0-1.61,4,18,18,0,0,0-1.6-4,8.36,8.36,0,0,0-4.57-4,5.29,5.29,0,0,0,2.2-4.25,4.72,4.72,0,1,0-9.41,0,5.3,5.3,0,0,0,2.19,4.27,8.4,8.4,0,0,0-4.57,4,18.61,18.61,0,0,0-1.61,4,18.05,18.05,0,0,0-1.6-4,8.4,8.4,0,0,0-4.57-4A5.3,5.3,0,0,0,49,58.41a5,5,0,0,0-4.7-5.1,5,5,0,0,0-4.71,5.1,5.28,5.28,0,0,0,2.19,4.25,8.36,8.36,0,0,0-4.57,4,18.48,18.48,0,0,0-1.6,4,19.06,19.06,0,0,0-1.61-4,8.4,8.4,0,0,0-4.57-4,5.28,5.28,0,0,0,2.19-4.25A5,5,0,0,0,26.94,53.31Zm0,1.44a3.67,3.67,0,0,1,0,7.3,3.67,3.67,0,0,1,0-7.3Zm17.38,0a3.67,3.67,0,0,1,0,7.3,3.67,3.67,0,0,1,0-7.3Zm17.38,0a3.67,3.67,0,0,1,0,7.3,3.67,3.67,0,0,1,0-7.3Zm17.37,0a3.67,3.67,0,0,1,0,7.3,3.67,3.67,0,0,1,0-7.3Z"/><path class="cls-2" d="M44.23,32.43a5,5,0,0,0-4.72,5.09,5.3,5.3,0,0,0,2.2,4.26,8.4,8.4,0,0,0-4.57,4,26.32,26.32,0,0,0-2.29,6.55l1.36.37a25.8,25.8,0,0,1,2.15-6.22,6.51,6.51,0,0,1,11.72,0,25.73,25.73,0,0,1,2.14,6.22h1.37a25.8,25.8,0,0,1,2.15-6.22,6.51,6.51,0,0,1,11.72,0,26.24,26.24,0,0,1,2.15,6.22L71,52.32a26.23,26.23,0,0,0-2.28-6.55,8.33,8.33,0,0,0-4.57-4,5.29,5.29,0,0,0,2.2-4.25,5,5,0,0,0-4.71-5.1,5,5,0,0,0-4.7,5.09,5.29,5.29,0,0,0,2.18,4.26,8.4,8.4,0,0,0-4.57,4,19.28,19.28,0,0,0-1.61,4,19,19,0,0,0-1.6-4,8.4,8.4,0,0,0-4.57-4,5.29,5.29,0,0,0,2.2-4.25A5,5,0,0,0,44.23,32.43Zm0,1.44a3.67,3.67,0,0,1,0,7.3,3.67,3.67,0,0,1,0-7.3Zm17.37,0a3.67,3.67,0,0,1,0,7.3,3.67,3.67,0,0,1,0-7.3Z"/></svg>