<svg id="Layer_1" data-name="Layer 1" xmlns="http://www.w3.org/2000/svg" viewBox="0 0 107 107"><defs><style>.cls-1{fill:#fff;}.cls-2{fill:none;}</style></defs><title>doors</title><g id="Group_33" data-name="Group 33"><path id="Path_60" data-name="Path 60" class="cls-1" d="M86.36,28.83v8.09A13.44,13.44,0,0,1,73,50.33H71.26A19.58,19.58,0,0,1,57.58,61.38v6.47h4.85a2.7,2.7,0,0,1,2.7,2.7h0v3.5h2.43a1.68,1.68,0,0,1,1.68,1.66v9.13a1.66,1.66,0,0,1-1.65,1.68h-28a1.66,1.66,0,0,1-1.68-1.65V75.68A1.67,1.67,0,0,1,39.55,74H42v-3.5a2.7,2.7,0,0,1,2.7-2.7h4.78v-6.4A19.42,19.42,0,0,1,35.81,50.33H34.06A13.35,13.35,0,0,1,20.64,37.05V28.9a2.13,2.13,0,0,1,2.08-2.16h11.2V22.63A2.13,2.13,0,0,1,36,20.48H70.85A2.11,2.11,0,0,1,73,22.55h0v4.12H84.2A2.22,2.22,0,0,1,86.36,28.83ZM34.06,43.59c0-.4-.07-.87-.07-1.28V33.48H27.38V37a6.6,6.6,0,0,0,6.54,6.6Zm26.15.14c0-2.77-1.49-4.45-5.06-5.73-2.56-1-3.64-1.62-3.64-2.63s.68-1.68,2.63-1.68a8.83,8.83,0,0,1,2.7.4,1.24,1.24,0,0,0,.47.06,1.79,1.79,0,0,0,1.75-1.82,1.72,1.72,0,0,0-1.28-1.68,17.16,17.16,0,0,0-2.76-.4V29a1.49,1.49,0,0,0-3,0v1.42c-3.23.67-5.12,2.76-5.12,5.39,0,3,2.23,4.45,5.46,5.6,2.23.81,3.24,1.55,3.24,2.7S54.41,46,52.73,46a9.27,9.27,0,0,1-3.3-.6c-.2-.07-.4-.07-.61-.14a1.75,1.75,0,0,0-1.69,1.28v.14a1.77,1.77,0,0,0,1.15,2.09,13.29,13.29,0,0,0,3.64.67v1.42a1.48,1.48,0,1,0,3,.07.09.09,0,0,0,0-.07V49.25C58.32,48.71,60.21,46.42,60.21,43.73ZM79.62,33.48H73.08v8.83A7.79,7.79,0,0,1,73,43.59h.07a6.61,6.61,0,0,0,6.6-6.6Z"/></g><rect class="cls-2" x="0.5" y="0.5" width="106" height="106"/></svg>