<svg id="Layer_1" data-name="Layer 1" xmlns="http://www.w3.org/2000/svg" viewBox="0 0 300 300"><defs><style>.cls-1{fill:#cb2555;}.cls-2{fill:#fff;}</style></defs><title>red-shield</title><path class="cls-1" d="M295,49.42c0,.64,0,1.29,0,1.92a271.73,271.73,0,0,1-2.29,33.75c-.38,3-.83,6-1.32,9-.15,1-.32,1.94-.49,2.9s-.34,1.94-.52,2.9l-.45,2.28c-.4,2.16-.84,4.32-1.33,6.46a276,276,0,0,1-29.76,77.53l-.35,0c-33.88-3.38-70-5.2-107.45-5.2h-1V292.64l.08.05-.08.05-3.43-1.92A276.42,276.42,0,0,1,43,189.35q-.87-1.48-1.71-3a276.19,276.19,0,0,1-29.82-77.46Q8.66,96.19,7.07,83.13c-.38-3.07-.72-6.14-1-9.23-.16-1.68-.29-3.35-.4-5Q5,59.21,5,49.42c1-.53,1.93-1.07,2.91-1.59,2-1.11,4-2.18,6.07-3.23l.26-.13q8.1-4.17,16.38-7.79l.26-.11q3.75-1.65,7.54-3.18,2.89-1.2,5.84-2.3l.39-.16,2.71-1c4.6-1.69,9.24-3.28,13.91-4.72a1.31,1.31,0,0,1,.28-.09q2.39-.75,4.79-1.46l.25-.07c4.5-1.33,9-2.53,13.57-3.63,1.27-.31,2.55-.6,3.82-.89a2,2,0,0,1,.31-.08q1-.23,1.95-.42h0l.26-.05c1-.23,2-.44,3.06-.66l.46-.1,2-.4c.66-.13,1.33-.27,2-.39,2.73-.53,5.47-1,8.2-1.45a1.32,1.32,0,0,1,.26-.05c1.54-.25,3.06-.48,4.6-.7l.13,0q5-.73,10-1.3c2.39-.26,4.77-.49,7.17-.69l.21,0,1.51-.13c2.1-.18,4.21-.32,6.32-.44.33,0,.67-.05,1-.05a1.1,1.1,0,0,1,.26,0q8.06-.45,16.12-.45h.27c1.55,0,3.09,0,4.63,0,2,0,4.06.08,6.08.17a.82.82,0,0,1,.27,0c1,0,2.08.07,3.12.12q9.64.45,19.26,1.54c.26,0,.53.06.79.11l1,.11.37,0q5.43.64,10.85,1.51c.79.12,1.6.25,2.41.4a.84.84,0,0,1,.27,0c1.13.19,2.26.38,3.39.59a1.19,1.19,0,0,1,.26.05q1.09.18,2.16.39,7.27,1.37,14.47,3.09l.27.07c1.51.37,3,.74,4.54,1.13l1.26.35c1.61.4,3.21.84,4.82,1.3l.26.07q8.12,2.26,16.13,5l.27.09c1.66.57,3.33,1.17,5,1.77l.8.31c1.77.64,3.52,1.31,5.27,2a1.17,1.17,0,0,1,.26.1c5.52,2.15,11,4.5,16.41,7l.27.12c1.53.71,3.05,1.43,4.57,2.18.84.39,1.66.8,2.49,1.21q2.14,1.06,4.28,2.17l.26.13c1.95,1,3.89,2,5.82,3.11C293.25,48.45,294.13,48.94,295,49.42Z"/><path class="cls-1" d="M295,58.19a269.19,269.19,0,0,1-2.16,26.9q-.58,4.55-1.33,9-1.19,7.34-2.78,14.56a276.12,276.12,0,0,1-29.79,77.52A276.26,276.26,0,0,1,180,274q2.15-1.57,4.26-3.21a275.51,275.51,0,0,1-30.87,20.08l-3.35,1.87-.08-.05V181h1c37.47,0,73.57,1.82,107.45,5.2l.35,0a276,276,0,0,0,29.76-77.53c.49-2.14.93-4.3,1.33-6.46l.45-2.28c.18-1,.36-1.93.52-2.9s.35-1.93.5-2.9c.51-3,1-6,1.36-9Q294.52,71.79,295,58.19Z"/><g id="Group_22" data-name="Group 22"><path id="Path_27" data-name="Path 27" class="cls-2" d="M150.18,75a75.08,75.08,0,1,0,.2,0Zm0,5a70.06,70.06,0,1,1-.23,0Zm0,25.06a2.36,2.36,0,0,0-2.5,2.22,1.41,1.41,0,0,0,0,.29v42.6a2.36,2.36,0,0,0,2.22,2.5h37.87a2.51,2.51,0,1,0,0-5h-35.1v-40.1a2.38,2.38,0,0,0-2.23-2.5Z"/></g></svg>