<svg xmlns="http://www.w3.org/2000/svg" viewBox="2813 4947 407.635 278">
  <defs>
    <style>
      .cls-1 {
        fill: #fff;
      }

      .cls-2 {
        fill: #1e1f47;
      }
    </style>
  </defs>
  <g id="Group_21" data-name="Group 21" transform="translate(2813.306 4947)">
    <g id="Group_20" data-name="Group 20">
      <path id="Path_1" data-name="Path 1" class="cls-1" d="M347,277.7c-16.6-.4-33.8-.9-50.9-3.1-4.9-.7-9.9-1.4-14.7-2.2-6.5-1-13.1-2-19.6-2.8l-1.1-.1-1.1-.4a31.014,31.014,0,0,0-10.8-1.5c-1.4,0-2.8,0-4.2.1-1.6,0-3.1.1-4.7.1-2.9,0-5.2-.1-7.5-.3a143.164,143.164,0,0,0-14.9-.7c-8,0-15.9.6-24.3,1.2-9.6.7-19.6,1.4-31.2,1.4-3.1,0-6.1-.1-9.2-.2-1.1,0-2.2-.1-3.3-.2-1.6-.1-3.3-.2-4.9-.2a17.246,17.246,0,0,0-5.7.7l-1.4.5-7.7.2-11.8.3c-2,0-4.1.1-6.1.1-19.8,0-39.6-2.2-58.7-4.3-5.5-.6-11.1-1.2-16.6-1.8l-5.3-.5-12-28c-.1-.3-.3-.6-.4-.9-2.6-5.7-2.7-10.6-.2-14.7l-.2-.5c-4.8-14.2-9.3-27.7-16.6-39.6A12.925,12.925,0,0,1,.1,169.9,12.852,12.852,0,0,1,7,162.1c10.5-5.3,21.4-10.8,33.1-16.9a21.107,21.107,0,0,1-1.9-9.4,10.382,10.382,0,0,1-1.2-1.7,40.509,40.509,0,0,1-4.5-10.5c-1.8-8,6.8-12.4,9.5-13.5,9-3.8,17.9-7.5,26.9-11.2l5.9-2.4c-.5-1.6-1-3.2-1.5-4.7-1.7-5-1.5-9.2.7-12.8a12.812,12.812,0,0,1,9.4-5.8c.1,0,.2-.1.3-.1a6.373,6.373,0,0,1-.2-.7c-.9-3-1.8-7.4.7-11.8,1.8-3.2,4.9-5.3,9.3-6.4,12.1-2.9,24.4-6.2,36.6-9.7a19.244,19.244,0,0,1,5.1-.8c3.3,0,11,1.2,13,12.4.1,0,.2-.1.3-.1a17.275,17.275,0,0,1,3.1-.8,14.279,14.279,0,0,1,2.9-.3,12.8,12.8,0,0,1,6.3,1.6l-.3-6.3c-.3-5.5-.7-10.9-1.1-16.5-.1-1.6-.5-6.5,3-10.4,2.3-2.6,5.6-3.9,9.7-4.1h1.4a16.2,16.2,0,0,1,.1-2.2c.4-7.2.6-17,15.1-17h2.2l8.2.1c8,.1,16.3.2,24.4.2h2.6c4.5,0,8,1.3,10.6,4,3.9,4.1,3.6,9.4,3.5,11.2-.1,1.3-.1,2.9-.2,4.2a26.352,26.352,0,0,0,2.8.2,13.513,13.513,0,0,1,9.6,4.3c3.4,3.9,3,8.8,2.8,10.7-.7,8.1-1.3,16.2-2,24.4a11.329,11.329,0,0,1,6.3-1.9,13.2,13.2,0,0,1,3.9.6c.2-.8.4-1.5.6-2.3.3-1.1.5-2.2.8-3.3h0a8.906,8.906,0,0,1,11.1-6.6h0c2.6.7,5.1,1.4,7.7,2.1,5.9,1.6,12,3.2,18,5,3.1.9,6.2,1.9,9.2,2.9,2.5.8,5,1.7,7.6,2.4,8.2,2.5,11.6,8.9,9.2,17.3a15.424,15.424,0,0,1-.5,1.7c.4.2,1.6.7,1.6.7.9.4,1.7.7,2.3.9,12.3,4.6,9.2,13.4,7,19.9-1.9,5.5-3.8,11.2-5.5,16.7-1.7,5.2-3.4,10.5-5.2,15.8a519.558,519.558,0,0,1,70.8,35.4c10.2,6.1,11.6,11.6,5.9,22.3-8.9,16.7-47.6,89.1-47.6,89.1Z"/>
      <path id="Path_2" data-name="Path 2" class="cls-2" d="M262.8,260.8c11.5,1.3,22.9,3.4,34.5,4.9,17,2.2,34.1,2.6,51.2,3.1a19.267,19.267,0,0,1,2.4.1q22.5-42.15,45-84.2c3.5-6.5,3.5-6.7-2.6-10.4a486.984,486.984,0,0,0-73.1-36.2c-3.5-1.4-4.2-2.7-2.8-6.6,4.2-11.9,7.8-24,11.9-35.9,2.9-8.3,2.3-6.7-4.3-9.5-8.8-3.7-9-3.7-6.3-13.2,1.1-3.8,0-5.2-3.1-6.1-5.6-1.7-11.1-3.7-16.7-5.4-6.3-1.8-12.6-3.5-19-5.3a6.54,6.54,0,0,0-8.1,4.8c-.3,1.1-.5,2.3-.7,3.4-.6,3.5-2,5.2-5.5,3.7-1.2-.5-2.7-.4-3.9-1-3.4-1.6-4.7-.1-5.4,3.5q-7.2,37.95-14.5,75.9c-1.6,8.3-3.3,16.6-5,24.9a5.714,5.714,0,0,1-1.2-4.1q5.1-66.45,10.5-133c.3-3.8-.6-5.1-4.1-5.3-11.5-.8-11.6-1-11-13.8.2-4.3-1.2-5.7-5.1-5.7-11.8,0-23.5-.2-35.3-.3-7.8-.1-7.8-.1-8,8.1-.2,10.5-.2,10.8-10.2,11.1-3.8.1-4.3,1.8-4,5.3.2,1.9.4,3.8.5,5.7,1,18.3,1.8,36.7,2.8,55,.8,14.8,1.5,29.7,2.4,44.5.6,9.5,1.3,19,2,28.5l-2,.2c-2.3-13.7-4.6-27.3-6.8-41q-4.65-29.4-9.2-58.9c-.5-3.3-2.3-4.1-4.9-3.6-1.3.2-2.5.8-3.8,1-8.3,1.6-8.5,1.6-10-7.3-.9-5.2-3-6.2-8.9-3.9-10.8,4.2-22.2,6.8-33.6,8.8-5.1.9-6,2.7-4.7,7.1,3.7,12.2,2.5,8.3-6.4,12.2-.1.1-.3,0-.5,0-4.1.5-4.8,2.9-3.4,6.8,1.4,4.1,2.6,8.4,3.9,12.6a15.852,15.852,0,0,1-2.3,1.3C71,107.9,58.4,113,45.9,118.4c-1.6.7-4.4,2.5-4.2,3.2a33.518,33.518,0,0,0,3.5,8c.5.9,1.9,1.2,3.2,1.9-1.8,5-.6,10.5,2.5,12.9a28.057,28.057,0,0,1,3.1,2.9c-1.3,1-2.4,2.4-3.8,3.1-12.9,6.7-25.8,13.3-38.8,19.8a3.8,3.8,0,0,0-1.6,5.4c8.3,13.6,13.2,28.9,18.3,44.1.4,1.2.6,3.4,0,3.9-3.7,3-1.7,5.9-.3,9l9.9,23.1c26.7,2.7,53.3,6.7,80.2,6,6-.1,12-.3,18-.5,5.4-2,11.5-1.1,17.2-.9,32.8,1.1,53.3-4.5,80.2-1.7C243.5,259.6,253.3,257.2,262.8,260.8ZM309.9,96.2c1.5,1.2,4.1,2.2,4.2,3.5.2,2-1.4,4.2-2.7,7.6-2.4-2.5-5-4.1-4.9-5.4C306.7,99.9,308.7,98.1,309.9,96.2Zm-11.1,32.1c2.1.8,4,1.5,6.4,2.3-1.1,2.8-2,5-3,7.5-1.9-.6-3.5-1.2-5.7-1.9C297.2,133.5,297.9,131.2,298.8,128.3ZM289.3,107c1.4,1.2,3.7,2.3,3.9,3.7.2,2-1.2,4.1-1.9,6.2-.9.5-1.8,1.1-2.8,1.6-1-1.8-2.9-3.7-2.6-5.3C286.2,111.1,288.1,109.1,289.3,107Zm-2.4,48.2h1.8c.9,1.4,2.8,3.1,2.5,4.2-.5,2-2.3,3.7-3.5,5.5-1.2-1.2-3.3-2.5-3.2-3.6C284.5,159.2,286,157.2,286.9,155.2ZM273.5,85.7c2.6,2.8,5,4.3,4.9,5.7,0,1.9-1.7,4.2-3.2,5.5-.5.4-4.1-1.7-4.1-2.8C271,91.9,272.3,89.6,273.5,85.7Zm-12,51.2c1-1.5,3.9-1.6,5.9-2.3a19.451,19.451,0,0,1,.8,2.2c-1.5,2.2,0,7-4.9,6.2C259.5,142.4,260.2,138.8,261.5,136.9ZM94.1,130.1c-.7,1.1-1.1,2.8-2,3.2-9.9,3.8-19.8,7.5-29.7,11.2-.5.2-.9.4-1.8.8-.5-.6-1.7-1.4-1.6-1.9a3.9,3.9,0,0,1,1.8-2.6c6.2-2.7,12.5-5.3,18.8-7.9a104.8,104.8,0,0,1,10.7-3.8C91.5,128.6,92.9,129.6,94.1,130.1Zm-41-2c2-1.3,3.8-2.9,5.9-3.7,8.6-3.5,17.3-6.9,26-10,1.4-.5,3.2.5,4.8.7-1,1.2-1.8,2.9-3.1,3.4-9.4,3.8-18.8,7.5-28.3,11.1a32.513,32.513,0,0,1-4.5.8A20.943,20.943,0,0,0,53.1,128.1Zm57-27.1c-1.6-.6-3.7-2.8-3.6-4.3,0-1.6,2.3-3.1,3.6-4.7,1.4,1.5,2.7,3,5,5.5C112.9,99.2,111.1,101.4,110.1,101ZM122,147.2c-1.4-.3-3.1-2.6-3.2-4.1s1.7-3.2,2.6-4.7c1.5,1.3,3,2.7,5.5,5C124.7,145.2,123.1,147.4,122,147.2Zm9.6-36.4c-.7.1-1.5.2-2.2.3-1-1.5-2.7-3-2.8-4.6,0-1.6,1.6-3.2,2.5-4.8,1.5,1.5,3.4,2.8,4.2,4.7C133.7,107.3,132.2,109.3,131.6,110.8Zm16.1,7.2c.1-1.3,2.1-3.6,2.9-3.5,1.6.3,3,2,5.7,4.1-2.4,2.2-3.6,4.2-5,4.4C148.1,123.5,147.5,120.4,147.7,118Zm4.7,35.2a7.4,7.4,0,0,1-3.3-4.6c-.2-1.1,1.7-2.7,2.7-4.1,1.4,1.3,2.8,2.5,5.4,4.8C154.8,151.2,152.9,153.5,152.4,153.2Zm68.4-87.9c2.7-.3,6.9-1.9,7.8,3.9-1.5,2.9,1.8,8.6-4.1,8.9-2.6.1-7.2,1.8-6.8-3.8C217.9,71.1,215.4,65.9,220.8,65.3ZM178.5,54.1c-1.5-4.8,1.2-6,5.7-6.1,3.1-.1,5.5.2,5.1,4.3-.3,3.3,2.3,8.7-3.5,8.6C178.8,60.8,179.2,62.1,178.5,54.1Zm1.3,34.2c.4-3.1-2.1-7.9,4.1-7.9,4.2,0,6.9.8,6,6.1.9,4.3.1,6.8-4.7,6.8C181.7,93.3,179.2,92.9,179.8,88.3Zm6.8,38.1c-5.9.5-5.4-3.2-5.8-7.2-.4-3.9.8-5.4,4.5-5.7,5-.4,5.6,2.5,5.2,6.7C191.2,123.7,191.2,126,186.6,126.4Zm13,16.7c-4.1.1-6-1.2-5.4-5.8.3-2.9-1.9-7,3.8-7.1,4.1,0,5.9,1.2,5.5,5.7C203.2,139,205,143,199.6,143.1Zm4.1-41.3c-.4,3.8,1,8.3-5.3,8.3-5.5-.1-4.4-3.7-4.7-7.1-.4-4.1.6-6.3,4.8-5.6C201.7,96.7,204.2,97.3,203.7,101.8Zm-5.3-23.9c-4,0-5.2-1.5-5.1-5.6.1-3.7-1.1-7.9,4.5-7.7,3.5.1,7.1.1,5.7,5.5C204.4,74.9,203.8,77.9,198.4,77.9Zm8.1-22c.4-3-1.8-8.3,4.3-7.9,2.7.5,7.1-1.6,6.6,4.2-.3,3.3,2.1,9-4.8,8.5C209.4,60.5,205.8,61.1,206.5,55.9Zm9.4,101.6c-.4,1-5.9,1.2-6.1.6-1.2-3.5-1.6-7.4-2.2-11.2l1.7-1.6c2.6.8,6.8.9,7.5,2.6C217.9,150.5,217.1,154.5,215.9,157.5Zm6.6-30.9c-3.2-.4-6.8.8-6-4.4.5-3.4-2.1-8.7,4.2-8.6,2.4,0,6.1-.5,5.3,4C225.4,120.9,227.9,126.3,222.5,126.6Zm6.9-24.3c-3-.2-6.3-.2-5.4-4.5.7-2.9-2.2-8.6,3.7-8.5,2.5.1,7-1.6,6.6,4.7C233.3,97,236.2,102.7,229.4,102.3Z"/>
      <path id="Path_3" data-name="Path 3" class="cls-1" d="M53.1,128.1c2-1.3,3.8-2.9,5.9-3.7,8.6-3.5,17.3-6.9,26-10,1.4-.5,3.2.5,4.8.7-1,1.2-1.8,2.9-3.1,3.4-9.4,3.8-18.8,7.5-28.3,11.1a32.513,32.513,0,0,1-4.5.8A20.943,20.943,0,0,0,53.1,128.1Z"/>
      <path id="Path_4" data-name="Path 4" class="cls-1" d="M60.6,145.2c-.5-.6-1.7-1.4-1.6-1.9a3.9,3.9,0,0,1,1.8-2.6c6.2-2.7,12.5-5.3,18.8-7.9A104.8,104.8,0,0,1,90.3,129c1.1-.3,2.4.7,3.7,1.1-.7,1.1-1.1,2.8-2,3.2-9.9,3.8-19.8,7.5-29.7,11.2A12.25,12.25,0,0,0,60.6,145.2Z"/>
      <path id="Path_5" data-name="Path 5" class="cls-1" d="M203.6,70.1c.8,4.9.1,7.8-5.2,7.8-4,0-5.2-1.5-5.1-5.6.1-3.7-1.1-7.9,4.5-7.7C201.4,64.7,205,64.7,203.6,70.1Z"/>
      <path id="Path_6" data-name="Path 6" class="cls-1" d="M178.5,54.1c-1.5-4.8,1.2-6,5.7-6.1,3.1-.1,5.5.2,5.1,4.3-.3,3.3,2.3,8.7-3.5,8.6C178.8,60.8,179.2,62.1,178.5,54.1Z"/>
      <path id="Path_7" data-name="Path 7" class="cls-1" d="M228.6,69.1c-1.5,2.9,1.8,8.6-4.1,8.9-2.6.1-7.2,1.8-6.8-3.8.2-3.1-2.3-8.3,3.1-8.9C223.5,65,227.7,63.4,228.6,69.1Z"/>
      <path id="Path_8" data-name="Path 8" class="cls-1" d="M210.8,48c2.7.5,7.1-1.6,6.6,4.2-.3,3.3,2.1,9-4.8,8.5-3.2-.2-6.8.4-6.1-4.9C206.9,52.9,204.7,47.6,210.8,48Z"/>
      <path id="Path_9" data-name="Path 9" class="cls-1" d="M234.4,94.1c-1,2.9,1.8,8.6-5,8.3-3-.2-6.3-.2-5.4-4.5.7-2.9-2.2-8.6,3.7-8.5C230.3,89.4,234.8,87.8,234.4,94.1Z"/>
      <path id="Path_10" data-name="Path 10" class="cls-1" d="M189.9,86.4c.9,4.3.1,6.8-4.7,6.8-3.5,0-6-.4-5.4-5,.4-3.1-2.1-7.9,4.1-7.9C188.2,80.4,190.8,81.1,189.9,86.4Z"/>
      <path id="Path_11" data-name="Path 11" class="cls-1" d="M198.5,97.3c3.3-.6,5.7,0,5.3,4.5-.4,3.8,1,8.3-5.3,8.3-5.5-.1-4.4-3.7-4.7-7.1C193.3,98.8,194.3,96.6,198.5,97.3Z"/>
      <path id="Path_12" data-name="Path 12" class="cls-1" d="M222.5,126.6c-3.2-.4-6.8.8-6-4.4.5-3.4-2.1-8.7,4.2-8.6,2.4,0,6.1-.5,5.3,4C225.4,120.9,227.9,126.3,222.5,126.6Z"/>
      <path id="Path_13" data-name="Path 13" class="cls-1" d="M190.5,120.2c.7,3.5.7,5.9-3.9,6.3-5.9.5-5.4-3.2-5.8-7.2-.4-3.9.8-5.4,4.5-5.7C190.3,113.1,190.9,116,190.5,120.2Z"/>
      <path id="Path_14" data-name="Path 14" class="cls-1" d="M194.2,137.3c.3-2.9-1.9-7,3.8-7.1,4.1,0,5.9,1.2,5.5,5.7-.3,3.1,1.5,7-3.9,7.2C195.5,143.2,193.6,141.9,194.2,137.3Z"/>
      <path id="Path_15" data-name="Path 15" class="cls-1" d="M209.3,145.2c2.6.8,6.8.9,7.5,2.6,1.1,2.7.3,6.7-.9,9.6-.4,1-5.9,1.2-6.1.6-1.2-3.5-1.6-7.4-2.2-11.2A12.879,12.879,0,0,0,209.3,145.2Z"/>
      <path id="Path_16" data-name="Path 16" class="cls-1" d="M273.5,85.7c2.6,2.8,5,4.3,4.9,5.7,0,1.9-1.7,4.2-3.2,5.5-.5.4-4.1-1.7-4.1-2.8C271,91.9,272.3,89.6,273.5,85.7Z"/>
      <path id="Path_17" data-name="Path 17" class="cls-1" d="M311.5,107.2c-2.4-2.5-5-4.1-4.9-5.4.1-2,2.1-3.8,3.3-5.7,1.5,1.2,4.1,2.2,4.2,3.5C314.3,101.7,312.8,103.8,311.5,107.2Z"/>
      <path id="Path_18" data-name="Path 18" class="cls-1" d="M288.5,118.6c-1-1.8-2.9-3.7-2.6-5.3.3-2.2,2.2-4.2,3.4-6.3,1.4,1.2,3.7,2.3,3.9,3.7.2,2-1.2,4.1-1.9,6.2A30.005,30.005,0,0,1,288.5,118.6Z"/>
      <path id="Path_19" data-name="Path 19" class="cls-1" d="M156.4,118.6c-2.4,2.2-3.6,4.2-5,4.4-3.2.5-3.9-2.5-3.6-5,.1-1.3,2.1-3.6,2.9-3.5C152.3,114.8,153.7,116.6,156.4,118.6Z"/>
      <path id="Path_20" data-name="Path 20" class="cls-1" d="M296.4,136.3c.8-2.7,1.5-5,2.3-8,2.1.8,4,1.5,6.4,2.3-1.1,2.8-2,5-3,7.5C300.2,137.5,298.6,137,296.4,136.3Z"/>
      <path id="Path_21" data-name="Path 21" class="cls-1" d="M115.1,97.6c-2.2,1.7-4,3.8-5,3.5-1.6-.6-3.7-2.8-3.6-4.3,0-1.6,2.3-3.1,3.6-4.7C111.4,93.6,112.8,95.1,115.1,97.6Z"/>
      <path id="Path_22" data-name="Path 22" class="cls-1" d="M129.3,111.1c-1-1.5-2.7-3-2.8-4.6,0-1.6,1.6-3.2,2.5-4.8,1.5,1.5,3.4,2.8,4.2,4.7.4,1-1.1,2.9-1.7,4.5A17.962,17.962,0,0,0,129.3,111.1Z"/>
      <path id="Path_23" data-name="Path 23" class="cls-1" d="M157.2,149.3c-2.4,2-4.3,4.2-4.8,3.9a7.4,7.4,0,0,1-3.3-4.6c-.2-1.1,1.7-2.7,2.7-4.1C153.2,145.8,154.7,147,157.2,149.3Z"/>
      <path id="Path_24" data-name="Path 24" class="cls-1" d="M126.9,143.3c-2.3,1.9-3.9,4.1-4.9,3.9-1.4-.3-3.1-2.6-3.2-4.1s1.7-3.2,2.6-4.7C122.9,139.6,124.4,141,126.9,143.3Z"/>
      <path id="Path_25" data-name="Path 25" class="cls-1" d="M288.7,155.2c.9,1.4,2.8,3.1,2.5,4.2-.5,2-2.3,3.7-3.5,5.5-1.2-1.2-3.3-2.5-3.2-3.6.1-2.1,1.6-4.1,2.5-6.1Z"/>
      <path id="Path_26" data-name="Path 26" class="cls-1" d="M268.3,136.9c-1.5,2.2,0,7-4.9,6.2-3.9-.7-3.2-4.3-1.9-6.1,1-1.5,3.9-1.6,5.9-2.3C267.7,135.4,268,136.1,268.3,136.9Z"/>
    </g>
  </g>
</svg>
