<svg id="Layer_1" data-name="Layer 1" xmlns="http://www.w3.org/2000/svg" viewBox="0 0 107 107"><defs><style>.cls-1{fill:#fff;}.cls-2{fill:none;}</style></defs><title>doors</title><path id="Path_49" data-name="Path 49" class="cls-1" d="M69.68,83.48H55.3c5.9-4.5,24.77-19.9,24.77-35.95a26.57,26.57,0,1,0-53.14,0c0,15.53,19,31.45,24.9,36H37.32a1.29,1.29,0,0,0,0,2.57H69.68a1.29,1.29,0,0,0,1.24-1.33,1.27,1.27,0,0,0-1.24-1.24ZM41.69,47A11.81,11.81,0,1,1,53.5,58.83h0A11.79,11.79,0,0,1,41.69,47.08V47Z"/><rect class="cls-2" x="0.5" y="0.5" width="106" height="106"/></svg>