<svg id="Layer_1" data-name="Layer 1" xmlns="http://www.w3.org/2000/svg" viewBox="0 0 231 50"><defs><style>.cls-1{fill:#fff;}</style></defs><title>win10k</title><path class="cls-1" d="M19.11,18.5c-2.71,19-3.45,25.06-3.45,25.06-7.62-.45-9.93-.33-9.93-.33C4,19,2.63,6.26,2.63,6.26L10.92,6c.4,19.7.85,28.95.85,28.95,3.33-23.14,4-26.92,4-26.92,4.35-.06,6.94.17,6.94.17,1.75,15,3.11,25.06,3.78,29.92.91-25.4,1-33.25,1-33.25,4.46.23,8.19.23,8.19.23-2.32,26.69-3.22,40.63-3.22,40.63-7.84.46-10.78.29-10.78.29C20.52,33.57,19.67,24.43,19.11,18.5Z"/><path class="cls-1" d="M37,8.57c0-2.88,1.75-4.52,4.74-4.52a4.26,4.26,0,0,1,4.52,4.58c0,2.7-1.52,4.79-4.57,4.79S37,11.62,37,8.57Zm.91,7.62s2.48.06,7.45-.06c0,0-.06,10.39.22,28.34,0,0-3.16,0-7.5.05C38.07,44.52,38.12,36.9,37.9,16.19Z"/><path class="cls-1" d="M59.79,25.56c0-1.86-.39-2.77-1.52-2.77-1.52,0-2.31,1.7-2.31,3.95-.12,4.24-.06,17.05-.06,17.05s-3.5-.06-7.56,0c0,0,.22-10.78.11-26.81,0,0,2.54.11,5.93-.06,0,0-.12,2.26-.06,4.24A7.75,7.75,0,0,1,61.26,16c3.9,0,5.76,2.77,5.93,7.73.11,3,.11,21.79.11,21.79-2.71,0-7.56.06-7.56.06S59.79,34.48,59.79,25.56Z"/><path class="cls-1" d="M85.19,46.39c.17-2.21.22-3.9.22-5C80.17,40.29,78.3,36,78.7,29c0,0,2.59.28,7.84.51-.62,4.4.4,6.49,2.26,6.49,1.47,0,2.2-1.07,2.2-3.16s-1-3.61-4.68-5.42c-5.87-3-7.62-5.87-7.62-10.61,0-4.57,2.43-7.56,6.83-8.41C85.41,4.73,85.25,3,85.25,3c5.13,0,7-.11,7-.11L92,8.57c4.46,1.24,6.55,4.91,6.1,12.19,0,0-2.71-.22-7.57-.34.51-3.89-.28-6.49-2-6.49-1.35,0-2.09,1.07-2.09,3.22s1.19,3.61,4.07,4.91c7.11,3.16,8.24,6.21,8.24,10.27,0,5.36-2.54,8.07-6.49,9,0,3,.11,5.14.11,5.14C87.22,46.33,85.19,46.39,85.19,46.39Z"/><path class="cls-1" d="M105.34,15.68c-3.11,1.69-4.41,2.6-4.41,2.6C99.52,13.71,98.56,11,98.56,11c5.76-3.11,10.28-5.7,10.28-5.7C111.72,5.69,113,6,113,6c0,19.87.34,38.72.34,38.72-5,.17-8,.06-8,.06C105.51,29.23,105.39,19.41,105.34,15.68Z"/><path class="cls-1" d="M117.36,25.16c0-13.71,3.44-20.09,10.83-20.09,7.62,0,10.9,6.38,10.9,19.75,0,14-2.94,21.17-10.84,21.17C120.86,46,117.36,39.33,117.36,25.16Zm13.37-.45c0-9.59-.79-13.49-2.59-13.49s-2.66,3-2.66,13.72c0,11.4.85,15,2.71,15S130.73,37.36,130.73,24.71Z"/><path class="cls-1" d="M139.42,48.36a13,13,0,0,0,2.94-4,4,4,0,0,1-2.49-3.95,4.11,4.11,0,0,1,4.24-4.4c2.48,0,4.17,2.09,4.17,5.08,0,3.21-2,6.37-5.7,9.59C140.5,49.21,139.42,48.36,139.42,48.36Z"/><path class="cls-1" d="M170.8,26c0,15-4.23,19.53-10.83,19.53-7.4,0-10.9-5.36-10.9-19.19,0-13.26,2.71-20.6,10.84-20.6C167.53,5.69,170.8,12.52,170.8,26Zm-13.37.34c0,10.56,1,12.93,2.59,12.93s2.6-1.86,2.6-13.1c0-10.89-.68-14.45-2.65-14.45C158.16,11.67,157.43,14.27,157.43,26.29Z"/><path class="cls-1" d="M172.61,25.16c0-13.71,3.44-20.09,10.83-20.09,7.62,0,10.9,6.38,10.9,19.75,0,14-2.94,21.17-10.84,21.17C176.11,46,172.61,39.33,172.61,25.16ZM186,24.71c0-9.59-.79-13.49-2.59-13.49s-2.66,3-2.66,13.72c0,11.4.85,15,2.71,15S186,37.36,186,24.71Z"/><path class="cls-1" d="M217.87,26c0,15-4.23,19.53-10.84,19.53-7.39,0-10.89-5.36-10.89-19.19,0-13.26,2.71-20.6,10.84-20.6C214.6,5.69,217.87,12.52,217.87,26Zm-13.38.34c0,10.56,1,12.93,2.6,12.93s2.6-1.86,2.6-13.1c0-10.89-.68-14.45-2.66-14.45C205.23,11.67,204.49,14.27,204.49,26.29Z"/><path class="cls-1" d="M219.5,40a4.73,4.73,0,0,1,5.08-5c3.45,0,5,2.49,5,5.14a4.67,4.67,0,0,1-4.91,5A4.77,4.77,0,0,1,219.5,40Zm.74-34.83s3.33.12,8.41,0c0,0-.45,12.53-.79,27.6,0,0-2.66-.11-6.49,0C221.37,32.78,221,19,220.24,5.18Z"/></svg>