<svg xmlns="http://www.w3.org/2000/svg" xmlns:xlink="http://www.w3.org/1999/xlink" viewBox="0 0 400 500"><defs><style>.cls-1,.cls-16{fill:#fff;}.cls-2{fill:#67a7d7;}.cls-3{fill:#61a0d0;}.cls-4{fill:#11123c;}.cls-5{fill:#56a8da;}.cls-6{fill:#316eb6;}.cls-7,.cls-8{fill:#c12329;}.cls-7{opacity:0.9;}.cls-9{fill:url(#linear-gradient);}.cls-10{fill:url(#linear-gradient-2);}.cls-11{fill:url(#linear-gradient-3);}.cls-12{fill:url(#linear-gradient-4);}.cls-13{fill:url(#linear-gradient-5);}.cls-14{fill:url(#linear-gradient-6);}.cls-15{fill:url(#linear-gradient-7);}.cls-16{font-size:23.52px;font-family:LuckiestGuy-Regular, Luckiest Guy;}</style><linearGradient id="linear-gradient" x1="218.01" y1="314.61" x2="218.01" y2="529.19" gradientUnits="userSpaceOnUse"><stop offset="0" stop-color="#fff"/><stop offset="1"/></linearGradient><linearGradient id="linear-gradient-2" x1="109.87" y1="314.61" x2="109.87" y2="529.19" xlink:href="#linear-gradient"/><linearGradient id="linear-gradient-3" x1="185.1" y1="314.61" x2="185.1" y2="529.19" xlink:href="#linear-gradient"/><linearGradient id="linear-gradient-4" x1="277.24" y1="314.61" x2="277.24" y2="529.19" xlink:href="#linear-gradient"/><linearGradient id="linear-gradient-5" x1="138.69" y1="314.61" x2="138.69" y2="529.19" xlink:href="#linear-gradient"/><linearGradient id="linear-gradient-6" x1="248.58" y1="314.61" x2="248.58" y2="529.19" xlink:href="#linear-gradient"/><linearGradient id="linear-gradient-7" x1="159.54" y1="314.61" x2="159.54" y2="529.19" xlink:href="#linear-gradient"/></defs><title>fortniteintheheights</title><g id="city"><path class="cls-1" d="M330.62,289.44c-15.14-.4-30.8-.8-46.34-2.85-4.5-.6-9-1.29-13.36-2-5.89-.91-12-1.85-17.89-2.51l-1-.11-1-.36a28,28,0,0,0-9.88-1.35c-1.27,0-2.55,0-3.83,0s-2.84.06-4.28.06a65.92,65.92,0,0,1-6.81-.31,129.46,129.46,0,0,0-13.59-.68c-7.32,0-14.49.52-22.09,1.08-8.77.65-17.84,1.32-28.46,1.32-2.78,0-5.59-.05-8.35-.15-1,0-2-.08-3-.14-1.47-.08-3-.16-4.43-.16a15.5,15.5,0,0,0-5.19.68l-1.23.45-7,.2q-5.39.17-10.78.3-2.77.06-5.55.06c-18.06,0-36-2-53.43-3.95-5-.56-10.07-1.12-15.11-1.64l-4.8-.49-10.9-25.5c-.12-.28-.25-.55-.37-.82-2.39-5.21-2.44-9.7-.16-13.4l-.15-.45c-4.34-13-8.44-25.2-15.09-36.11a11,11,0,0,1,4.69-16.55c9.55-4.81,19.47-9.87,30.19-15.41a19.57,19.57,0,0,1-1.75-8.6,9.79,9.79,0,0,1-1.12-1.55A35.37,35.37,0,0,1,44.51,149c-1.68-7.3,6.17-11.25,8.62-12.29,8.16-3.46,16.33-6.85,24.51-10.24L83,124.29c-.44-1.48-.9-2.92-1.39-4.32-1.57-4.52-1.35-8.43.65-11.63a11.77,11.77,0,0,1,8.54-5.3l.3-.12-.18-.59c-.82-2.72-1.66-6.79.6-10.74,1.64-2.88,4.49-4.84,8.45-5.81,11-2.68,22.21-5.66,33.38-8.85a16.82,16.82,0,0,1,4.6-.7c3,0,10,1.1,11.85,11.26l.28-.09a21,21,0,0,1,2.82-.73,14.91,14.91,0,0,1,2.61-.24,11.45,11.45,0,0,1,5.76,1.48l-.3-5.74c-.26-5-.6-9.94-1-15-.1-1.47-.42-6,2.75-9.48a11.9,11.9,0,0,1,8.82-3.7l1.29,0c0-.67,0-1.37,0-2,.14-6.54.33-15.44,13.53-15.44l2,0,7.48.1c7.3.1,14.84.2,22.23.2h2.33c4.12,0,7.33,1.22,9.62,3.61,3.52,3.69,3.28,8.56,3.21,10.16-.06,1.2-.13,2.61-.16,3.84l2.56.19a12.26,12.26,0,0,1,8.72,3.93c3.09,3.6,2.73,8,2.6,9.72q-.9,11.09-1.79,22.23A10.49,10.49,0,0,1,251,88.73a11.85,11.85,0,0,1,3.53.55c.17-.71.34-1.41.52-2.13.23-1,.48-2,.73-3h0a8.18,8.18,0,0,1,10.13-6h0l7,1.9c5.37,1.45,10.92,3,16.36,4.53,2.86.83,5.66,1.77,8.36,2.68,2.29.77,4.58,1.53,6.88,2.23,7.45,2.24,10.57,8.11,8.36,15.71-.13.42-.29,1-.44,1.53l1.46.62c.81.34,1.51.6,2.1.82,11.23,4.19,8.42,12.23,6.37,18.1-1.75,5-3.43,10.22-5.05,15.25-1.52,4.74-3.09,9.6-4.75,14.43A461,461,0,0,1,377,188.16c9.31,5.58,10.61,10.52,5.35,20.35C374.23,223.73,339,289.65,339,289.65Z"/><path class="cls-2" d="M253.93,274c10.49,1.17,20.9,3.11,31.42,4.5,15.49,2,31,2.41,46.61,2.81l2.17.06q20.5-38.35,41-76.69c3.19-6,3.2-6.15-2.34-9.47a448.46,448.46,0,0,0-66.55-33c-3.19-1.25-3.81-2.42-2.54-6,3.85-10.81,7.08-21.87,10.87-32.71,2.63-7.52,2.07-6.15-3.92-8.67-8-3.38-8.23-3.34-5.71-12,1-3.5,0-4.72-2.84-5.58-5.09-1.53-10.09-3.4-15.18-4.89-5.74-1.67-11.51-3.22-17.34-4.8A6,6,0,0,0,262.26,92c-.25,1-.47,2.06-.66,3.09-.59,3.14-1.81,4.75-5,3.34-1.11-.49-2.43-.41-3.51-.93-3.13-1.48-4.32-.09-4.94,3.19q-6.53,34.58-13.21,69.13c-1.46,7.57-3,15.11-4.55,22.67a5.28,5.28,0,0,1-1.13-3.73q4.72-60.6,9.55-121.17c.28-3.45-.51-4.6-3.72-4.83-10.45-.74-10.57-.87-10-12.59.19-4-1.12-5.2-4.62-5.19-10.71,0-21.42-.17-32.13-.3-7.12-.09-7.12-.11-7.28,7.37-.2,9.6-.2,9.83-9.25,10.13-3.43.11-3.93,1.63-3.64,4.85.16,1.71.33,3.43.43,5.14.92,16.7,1.68,33.4,2.55,50.1.71,13.52,1.41,27,2.21,40.56.51,8.66,1.2,17.3,1.81,25.95l-1.8.2c-2.07-12.44-4.19-24.87-6.18-37.32q-4.29-26.8-8.4-53.64c-.46-3-2.09-3.73-4.51-3.3-1.17.21-2.31.72-3.48.94-7.59,1.43-7.72,1.45-9.08-6.61-.8-4.78-2.76-5.67-8.11-3.58-9.86,3.84-20.22,6.16-30.64,8-4.67.84-5.46,2.48-4.25,6.44,3.38,11.11,2.28,7.53-5.84,11.08a1.35,1.35,0,0,1-.45,0c-3.78.45-4.36,2.65-3.12,6.2,1.31,3.76,2.34,7.63,3.5,11.47-1.06.61-1.56,1-2.1,1.2-11.47,4.77-23,9.49-34.39,14.34-1.48.63-4,2.3-3.84,2.9a27.16,27.16,0,0,0,3.19,7.31c.46.81,1.77,1.06,3,1.71-1.64,4.58-.51,9.6,2.27,11.72a32.08,32.08,0,0,1,2.81,2.67,21.42,21.42,0,0,1-3.44,2.8q-17.62,9.12-35.33,18.06a3.44,3.44,0,0,0-1.43,4.9c7.58,12.41,12.05,26.34,16.69,40.17.36,1.07.51,3.08,0,3.52-3.36,2.73-1.51,5.38-.31,8.2l9,21.08c24.33,2.49,48.53,6.06,73.06,5.48,5.48-.13,10.94-.31,16.4-.46,4.93-1.79,10.46-1,15.7-.86,29.91,1,48.52-4.09,73.06-1.54C236.34,272.91,245.25,270.71,253.93,274Zm42.92-149.89c1.35,1,3.72,2,3.82,3.17.16,1.83-1.23,3.81-2.42,6.91-2.19-2.3-4.52-3.7-4.44-4.9C293.94,127.46,295.75,125.8,296.85,124.08ZM286.69,153.3l5.81,2.12-2.77,6.87-5.18-1.7ZM278,134c1.25,1.13,3.39,2.14,3.53,3.41.21,1.79-1.07,3.77-1.71,5.67l-2.53,1.49c-.86-1.62-2.59-3.38-2.39-4.83C275.21,137.68,276.93,135.88,278,134Zm-2.17,43.85h1.62c.81,1.3,2.51,2.86,2.26,3.84-.48,1.86-2.07,3.39-3.19,5-1.05-1.1-3-2.28-2.95-3.29C273.73,181.5,275,179.68,275.86,177.82Zm-12.18-63.28c2.35,2.58,4.54,3.92,4.51,5.2-.05,1.76-1.51,3.82-2.91,5-.45.38-3.7-1.55-3.77-2.57C261.38,120.17,262.58,118.06,263.68,114.54Zm-10.92,46.68c1-1.38,3.53-1.45,5.38-2.1l.77,2c-1.38,2,0,6.4-4.44,5.62C250.91,166.16,251.59,162.9,252.76,161.22ZM100.29,155c-.6,1-1,2.55-1.83,2.87-9,3.5-18,6.81-27.06,10.18-.43.15-.83.37-1.6.72-.46-.53-1.52-1.29-1.42-1.75A3.74,3.74,0,0,1,70,164.58c5.69-2.49,11.42-4.86,17.17-7.18a96.17,96.17,0,0,1,9.76-3.49C97.91,153.63,99.16,154.57,100.29,155ZM63,153.16c1.79-1.15,3.47-2.61,5.39-3.39,7.84-3.2,15.72-6.28,23.67-9.14,1.25-.46,2.92.42,4.4.67-.92,1.07-1.66,2.66-2.79,3.12-8.53,3.5-17.13,6.82-25.74,10.1a20.86,20.86,0,0,1-4.12.69Zm51.92-24.66c-1.43-.52-3.33-2.56-3.3-3.93s2.07-2.83,3.24-4.25l4.58,5C117.35,126.86,115.76,128.82,114.88,128.5Zm10.84,42a5.09,5.09,0,0,1-2.93-3.75c-.09-1.38,1.53-2.88,2.4-4.32l5,4.56C128.11,168.74,126.67,170.76,125.72,170.52Zm8.66-33.1-2,.24c-.9-1.39-2.48-2.76-2.53-4.18s1.44-2.93,2.25-4.4c1.34,1.4,3.09,2.58,3.85,4.28C136.33,134.24,135,136,134.38,137.42Zm14.75,6.5c.13-1.21,1.94-3.29,2.68-3.14,1.49.3,2.76,1.86,5.18,3.72-2.18,2-3.28,3.79-4.59,4C149.47,149,148.89,146.18,149.13,143.92ZM153.35,176a6.91,6.91,0,0,1-3-4.17c-.17-1,1.59-2.46,2.48-3.7l4.9,4.33C155.59,174.23,153.83,176.29,153.35,176Zm62.3-80c2.45-.29,6.32-1.74,7.15,3.52-1.39,2.59,1.62,7.82-3.75,8.12-2.33.13-6.58,1.65-6.23-3.5C213,101.26,210.72,96.5,215.65,95.93ZM177.18,85.78c-1.37-4.37,1.13-5.45,5.22-5.59,2.86-.11,5,.13,4.61,3.9-.3,3,2.11,7.9-3.23,7.84C177.38,91.85,177.76,93.07,177.18,85.78Zm1.13,31.12c.36-2.86-1.94-7.21,3.77-7.2,3.87,0,6.26.69,5.43,5.51.85,3.93.08,6.23-4.25,6.24C180.09,121.45,177.77,121.12,178.31,116.9Zm6.19,34.75c-5.35.49-4.91-3-5.27-6.6s.73-4.94,4.13-5.2c4.51-.34,5.09,2.26,4.71,6.07C188.75,149.14,188.74,151.26,184.5,151.65Zm11.86,15.18c-3.75.12-5.44-1.12-5-5.3.24-2.64-1.69-6.37,3.46-6.42,3.71,0,5.38,1.06,5,5.18C199.67,163.09,201.31,166.68,196.36,166.83Zm3.76-37.67c-.34,3.42.95,7.58-4.81,7.53-5-.05-4-3.37-4.31-6.5-.4-3.72.53-5.75,4.33-5.09C198.31,124.53,200.52,125.09,200.12,129.16Zm-4.84-21.77c-3.67,0-4.74-1.35-4.6-5.09.12-3.36-1-7.2,4.14-7,3.22.13,6.46.07,5.22,5C200.77,104.72,200.17,107.41,195.28,107.39Zm7.37-20c.38-2.74-1.67-7.54,3.93-7.15,2.45.47,6.49-1.46,6,3.8-.29,3,1.88,8.22-4.36,7.79C205.25,91.6,202,92.13,202.65,87.37Zm8.57,92.52c-.36,1-5.33,1.13-5.51.58-1.11-3.23-1.42-6.77-2-10.21l1.5-1.5c2.39.75,6.21.82,6.83,2.39C213,173.57,212.27,177.23,211.22,179.89Zm6-28.08c-2.9-.34-6.19.74-5.47-4,.47-3.06-1.86-7.9,3.81-7.79,2.16,0,5.56-.42,4.85,3.68C219.88,146.6,222.18,151.47,217.19,151.81Zm6.34-22.13c-2.75-.16-5.77-.22-4.88-4.1.61-2.67-2-7.85,3.4-7.72,2.29,0,6.33-1.42,6,4.3C227.1,124.79,229.7,130,223.53,129.68Z"/><path class="cls-1" d="M63,153.16c1.79-1.15,3.47-2.61,5.39-3.39,7.84-3.2,15.72-6.28,23.67-9.14,1.25-.46,2.92.42,4.4.67-.92,1.07-1.66,2.66-2.79,3.12-8.53,3.5-17.13,6.82-25.74,10.1a20.86,20.86,0,0,1-4.12.69Z"/><path class="cls-1" d="M69.8,168.72c-.46-.53-1.52-1.29-1.42-1.75A3.74,3.74,0,0,1,70,164.58c5.69-2.49,11.42-4.86,17.17-7.18a96.17,96.17,0,0,1,9.76-3.49c1-.28,2.22.66,3.35,1-.6,1-1,2.55-1.83,2.87-9,3.5-18,6.81-27.06,10.18C71,168.15,70.57,168.37,69.8,168.72Z"/><path class="cls-1" d="M200,100.3c.73,4.42.13,7.11-4.76,7.09-3.67,0-4.74-1.35-4.6-5.09.12-3.36-1-7.2,4.14-7C198,95.44,201.28,95.38,200,100.3Z"/><path class="cls-1" d="M177.18,85.78c-1.37-4.37,1.13-5.45,5.22-5.59,2.86-.11,5,.13,4.61,3.9-.3,3,2.11,7.9-3.23,7.84C177.38,91.85,177.76,93.07,177.18,85.78Z"/><path class="cls-1" d="M222.8,99.45c-1.39,2.59,1.62,7.82-3.75,8.12-2.33.13-6.58,1.65-6.23-3.5.19-2.81-2.1-7.57,2.83-8.14C218.1,95.64,222,94.19,222.8,99.45Z"/><path class="cls-1" d="M206.58,80.22c2.45.47,6.49-1.46,6,3.8-.29,3,1.88,8.22-4.36,7.79-2.95-.21-6.21.32-5.55-4.44C203,84.63,201,79.83,206.58,80.22Z"/><path class="cls-1" d="M228,122.16c-.94,2.63,1.66,7.88-4.51,7.52-2.76-.16-5.77-.22-4.88-4.1.61-2.67-2-7.85,3.4-7.72C224.34,117.91,228.38,116.44,228,122.16Z"/><path class="cls-1" d="M187.51,115.21c.85,3.93.08,6.23-4.25,6.24-3.17,0-5.49-.33-4.95-4.55.36-2.86-1.94-7.21,3.77-7.2C186,109.7,188.34,110.39,187.51,115.21Z"/><path class="cls-1" d="M195.33,125.1c3-.57,5.19,0,4.79,4.06-.34,3.42.95,7.58-4.81,7.53-5-.05-4-3.37-4.31-6.5C190.6,126.47,191.53,124.44,195.33,125.1Z"/><path class="cls-1" d="M217.19,151.81c-2.9-.34-6.19.74-5.47-4,.47-3.06-1.86-7.9,3.81-7.79,2.16,0,5.56-.42,4.85,3.68C219.88,146.6,222.18,151.47,217.19,151.81Z"/><path class="cls-1" d="M188.07,145.92c.68,3.22.67,5.34-3.57,5.73-5.35.49-4.91-3-5.27-6.6s.73-4.94,4.13-5.2C187.87,139.51,188.45,142.11,188.07,145.92Z"/><path class="cls-1" d="M191.41,161.53c.24-2.64-1.69-6.37,3.46-6.42,3.71,0,5.38,1.06,5,5.18-.23,2.8,1.41,6.39-3.54,6.54C192.61,167,190.92,165.71,191.41,161.53Z"/><path class="cls-1" d="M205.21,168.76c2.39.75,6.21.82,6.83,2.39,1,2.42.23,6.08-.82,8.74-.36,1-5.33,1.13-5.51.58-1.11-3.23-1.42-6.77-2-10.21Z"/><path class="cls-1" d="M263.68,114.54c2.35,2.58,4.54,3.92,4.51,5.2-.05,1.76-1.51,3.82-2.91,5-.45.38-3.7-1.55-3.77-2.57C261.38,120.17,262.58,118.06,263.68,114.54Z"/><path class="cls-1" d="M298.25,134.16c-2.19-2.3-4.52-3.7-4.44-4.9.13-1.8,1.94-3.46,3-5.18,1.35,1,3.72,2,3.82,3.17C300.83,129.08,299.44,131.06,298.25,134.16Z"/><path class="cls-1" d="M277.32,144.54c-.86-1.62-2.59-3.38-2.39-4.83.28-2,2-3.83,3.1-5.74,1.25,1.13,3.38,2.14,3.53,3.41.21,1.79-1.07,3.77-1.71,5.67Z"/><path class="cls-1" d="M157,144.5c-2.18,2-3.28,3.79-4.59,4-2.93.46-3.51-2.32-3.27-4.58.13-1.21,1.94-3.29,2.68-3.14C153.3,141.08,154.57,142.64,157,144.5Z"/><path class="cls-1" d="M284.55,160.59l2.14-7.29,5.81,2.12-2.77,6.87Z"/><path class="cls-1" d="M119.4,125.35c-2.05,1.51-3.64,3.47-4.52,3.15-1.43-.52-3.33-2.56-3.3-3.93s2.07-2.83,3.24-4.25Z"/><path class="cls-1" d="M132.37,137.66c-.9-1.39-2.48-2.76-2.53-4.18s1.44-2.93,2.25-4.4c1.34,1.4,3.09,2.58,3.85,4.28.39.88-1,2.68-1.56,4.06Z"/><path class="cls-1" d="M157.74,172.44c-2.15,1.79-3.91,3.85-4.39,3.54a6.91,6.91,0,0,1-3-4.17c-.17-1,1.59-2.46,2.48-3.7Z"/><path class="cls-1" d="M130.19,167c-2.08,1.73-3.52,3.75-4.47,3.51a5.09,5.09,0,0,1-2.93-3.75c-.09-1.38,1.53-2.88,2.4-4.32Z"/><path class="cls-1" d="M277.48,177.81c.81,1.3,2.51,2.86,2.26,3.84-.48,1.86-2.07,3.38-3.19,5-1.05-1.1-3-2.28-2.95-3.29.14-1.91,1.44-3.73,2.26-5.59Z"/><path class="cls-1" d="M258.91,161.16c-1.38,2,0,6.4-4.44,5.62-3.56-.62-2.88-3.88-1.71-5.56,1-1.38,3.53-1.45,5.38-2.1Z"/></g><g id="shield"><path class="cls-3" d="M324.47,250.64l-.13-.08L322,249.28c-1.74-1-3.49-1.89-5.25-2.81l-.23-.11c-2.47-1.27-5-2.51-7.45-3.7-.81-.38-1.62-.78-2.44-1.15a.16.16,0,0,1-.09,0l-.08,0a2.26,2.26,0,0,0-.42-.19q-7.33-3.41-14.81-6.32l-.23-.09c-1.58-.62-3.16-1.22-4.76-1.8l-.73-.27c-1.5-.55-3-1.09-4.5-1.6l-.25-.08q-7.23-2.51-14.55-4.54a1.36,1.36,0,0,0-.25-.07c-1.44-.42-2.89-.81-4.34-1.18l-1.13-.3c-1.37-.35-2.73-.69-4.1-1l-.25-.07q-6.49-1.56-13-2.78c-.65-.13-1.3-.25-2-.36l-.24-.05c-1-.18-2-.35-3-.51a1.11,1.11,0,0,0-.25-.05q-1.09-.19-2.19-.36c-3.22-.51-6.43-.95-9.65-1.33a1.86,1.86,0,0,0-.33,0,1.09,1.09,0,0,0-.25,0l-.72-.08q-9.78-1.14-19.61-1.54c-.44,0-.88,0-1.33-.05a1,1,0,0,0-.25,0q-2.73-.1-5.49-.15c-1.39,0-2.78,0-4.18,0h-.24c-4.86,0-9.7.14-14.55.41a.86.86,0,0,0-.23,0,5.63,5.63,0,0,0-.71,0c-1.6.08-3.19.19-4.79.32-.91.06-1.81.13-2.71.23a.09.09,0,0,0-.09,0q-7.92.66-15.79,1.84a.17.17,0,0,0-.1,0c-1.25.19-2.5.38-3.75.59a1,1,0,0,0-.24,0q-5.51.87-11,2c-1.09.22-2.17.45-3.24.7a.86.86,0,0,0-.24,0c-.58.12-1.16.26-1.73.39l-.27.06c-1.16.26-2.33.54-3.48.82q-6.16,1.48-12.26,3.28a1,1,0,0,0-.24.07c-1.43.41-2.85.85-4.27,1.29l-.27.08q-6.16,1.94-12.26,4.18l-2.5.93-.39.15c-1.75.66-3.49,1.35-5.23,2.05q-3.54,1.44-7,3l-.25.11q-7.45,3.27-14.77,7l-.24.13q-2.76,1.41-5.48,2.91c-.83.45-1.66.9-2.49,1.37a0,0,0,0,1,0,0q0,7.9.5,15.73c.09,1.52.2,3,.32,4.53.22,2.79.5,5.56.82,8.33q1.35,11.81,3.82,23.32a249.23,249.23,0,0,0,26.31,70c.82,1.48,1.66,2.94,2.52,4.4a249.53,249.53,0,0,0,93.47,91.57l3.09,1.73,3.11-1.73A249.73,249.73,0,0,0,319.07,302.35q1.41-6.53,2.42-13.17.64-4.05,1.14-8.15a249,249,0,0,0,1.86-30.38ZM322.4,281q-.52,4.1-1.2,8.15-1.06,6.61-2.51,13.14a249.73,249.73,0,0,1-98.08,149.15c1.29-.95,2.58-1.91,3.85-2.9a248.7,248.7,0,0,1-27.86,18.12l-3,1.69-.08,0V367.54h.92c33.82,0,66.4,1.64,97,4.69l.31,0a249.14,249.14,0,0,0,26.86-70c.43-1.93.83-3.88,1.2-5.83.14-.68.26-1.37.4-2.06.16-.86.33-1.74.47-2.61s.31-1.74.45-2.62q.69-4.05,1.23-8.15c1.07-8,1.75-16.11,2-24.27Q324,269,322.4,281Z"/><path class="cls-4" d="M326,239.07c-2.39-1.34-4.8-2.63-7.24-3.89s-4.66-2.4-7-3.53h0l-2.3-1.1q-9-4.23-18.23-7.78l-.23-.09c-1.59-.61-3.16-1.19-4.76-1.76l-.73-.27c-1.5-.53-3-1.06-4.51-1.56l-.25-.09q-7.2-2.44-14.54-4.46c-1.46-.4-2.93-.8-4.4-1.17l-.18-.05c-1.16-.3-2.33-.59-3.5-.87a1.05,1.05,0,0,0-.24-.06c-.49-.13-1-.24-1.49-.35l-.25-.07c-1.24-.3-2.49-.58-3.73-.84-3.12-.71-6.25-1.33-9.39-1.91l-1.89-.34-.25,0c-1-.19-2.07-.36-3.11-.53a1.09,1.09,0,0,0-.25,0l-2.12-.34q-5.27-.83-10.56-1.42l-.32,0c-1.44-.16-2.88-.32-4.33-.45-.24,0-.47-.06-.71-.07q-6.19-.6-12.42-.9c-1.18-.06-2.36-.12-3.55-.15h-.25l-1.44,0h-.25l-3.79-.08c-1.39,0-2.77,0-4.16,0q-9.65,0-19.25.7c-1.14.07-2.27.15-3.41.25l-.24,0q-.89.06-1.77.15c-.24,0-.48,0-.71.07q-1.5.12-3,.3c-4.25.44-8.5,1-12.71,1.63l-1.92.29q-6.18,1-12.31,2.27h0c-.7.13-1.4.28-2.09.44a.6.6,0,0,0-.24,0l-2.61.56a3.63,3.63,0,0,1-.42.1l-2.45.59q-6.22,1.45-12.36,3.25a1.29,1.29,0,0,0-.28.08c-1.37.38-2.74.79-4.11,1.22a.8.8,0,0,0-.2.07q-6.28,1.91-12.46,4.15c-1,.37-2.07.75-3.11,1.15a1.09,1.09,0,0,0-.23.09c-.65.23-1.3.48-2,.74a1,1,0,0,0-.22.09c-1.12.42-2.23.86-3.34,1.3q-10.8,4.35-21.21,9.61a.94.94,0,0,0-.24.13c-1.84.92-3.67,1.86-5.48,2.85-1.36.72-2.71,1.45-4.05,2.21l-7.95,4.44v5.3q0,10.57.88,21.06c.24,2.79.51,5.56.84,8.34a256.25,256.25,0,0,0,30.75,95.26c1.25,2.26,2.55,4.49,3.87,6.71a267.39,267.39,0,0,0,99.27,96.16l4.73,2.65,4.75-2.65a267.36,267.36,0,0,0,99.26-96.16q2-3.42,3.95-6.88A257.2,257.2,0,0,0,328,303.59q1.56-7,2.71-14.15c.44-2.72.83-5.43,1.18-8.15A253.3,253.3,0,0,0,334,248.81v-5.3Zm-4.83,50.1q-1.06,6.61-2.51,13.14a249.73,249.73,0,0,1-98.08,149.15c1.29-.95,2.58-1.91,3.85-2.9a248.7,248.7,0,0,1-27.86,18.12l-3,1.69-.08,0V367.54h.92c33.82,0,66.4,1.64,97,4.69l.31,0a249.14,249.14,0,0,0,26.86-70c.43-1.93.83-3.88,1.2-5.83.14-.68.26-1.37.4-2.06.16-.86.33-1.74.47-2.61s.31-1.74.45-2.62q.69-4.05,1.23-8.15c1.07-8,1.75-16.11,2-24.27Q324,269,322.4,281,321.88,285.12,321.2,289.17Z"/><path class="cls-1" d="M196.6,466.68a248.7,248.7,0,0,0,27.86-18.12c-1.27,1-2.56,1.95-3.85,2.9a250.83,250.83,0,0,1-23.88,15.19l-3.11,1.74,0,0Z"/><path class="cls-1" d="M324.49,248.81c0,.62,0,1.22,0,1.83s0,1.24,0,1.85c0,1.43-.06,2.84-.11,4.26-.28,8.16-1,16.27-2,24.27q-.54,4.1-1.23,8.15c-.14.88-.29,1.74-.45,2.62s-.31,1.75-.47,2.61c-.14.69-.26,1.38-.4,2.06-.37,2-.77,3.9-1.2,5.83a249.14,249.14,0,0,1-26.86,70l-.31,0c-30.58-3.05-63.16-4.69-97-4.69h-.92V468.33l-3-1.68a249.43,249.43,0,0,1-93.47-91.56c-.52-.88-1-1.78-1.54-2.67A249.39,249.39,0,0,1,68.6,302.51q-2.52-11.47-4-23.25c-.34-2.77-.63-5.54-.88-8.33q-.9-10.06-1-20.29c0-.61,0-1.21,0-1.83.82-.46,1.66-.92,2.5-1.37q2.72-1.5,5.48-2.91l.24-.12q7.31-3.78,14.77-7l.24-.11q3.39-1.5,6.81-2.86c1.75-.73,3.51-1.42,5.28-2.09l.35-.14,2.43-.91q6.24-2.31,12.56-4.27l.25-.08c1.44-.46,2.88-.89,4.33-1.32l.22-.07q6.1-1.78,12.25-3.27c1.14-.29,2.29-.55,3.45-.81l.27-.07L136,221a.86.86,0,0,1,.24,0l2.76-.61.41-.08,1.82-.37c.6-.12,1.2-.25,1.81-.36,2.47-.47,4.94-.91,7.4-1.3a.75.75,0,0,1,.24,0c1.39-.23,2.76-.44,4.15-.64l.11,0c3-.44,6-.83,9-1.17q3.24-.36,6.46-.63l.2,0,1.27-.11q2.9-.24,5.79-.4a9.08,9.08,0,0,1,.91-.05.86.86,0,0,1,.23,0c4.85-.27,9.69-.41,14.55-.41h.24c1.4,0,2.79,0,4.18,0,1.84,0,3.67.07,5.49.15a1,1,0,0,1,.24,0c1,0,1.9.06,2.84.11q8.68.41,17.34,1.39l.72.08c.29,0,.59.06.88.11a1.75,1.75,0,0,1,.32,0q4.9.57,9.8,1.35l2.18.36.24,0c1,.17,2,.34,3.06.53a1,1,0,0,1,.24.05c.66.1,1.3.23,2,.35q6.55,1.22,13,2.78l.25.07c1.37.32,2.73.66,4.1,1,.38.09.75.19,1.13.3q2.17.56,4.35,1.17l.24.06q7.32,2.06,14.55,4.55l.25.08c1.51.52,3,1,4.5,1.6l.73.27c1.6.58,3.18,1.18,4.76,1.81a1.09,1.09,0,0,1,.23.09Q298.7,236,306,239.42a1,1,0,0,1,.24.1c1.44.67,2.87,1.34,4.3,2,.75.36,1.49.72,2.24,1.1,1.24.61,2.47,1.24,3.7,1.87l.23.12q2.64,1.36,5.25,2.8Z"/><path class="cls-5" d="M324.36,248.83c0,.58,0,1.16,0,1.73A242.34,242.34,0,0,1,322.27,281q-.51,4.1-1.19,8.15c-.14.88-.28,1.75-.44,2.62s-.31,1.75-.47,2.61c-.14.69-.26,1.38-.4,2.06-.37,2-.77,3.9-1.2,5.83a249.14,249.14,0,0,1-26.86,70l-.31,0c-30.58-3.05-63.16-4.69-97-4.69h-.92V468.33l.08,0-.08,0-3.09-1.73a249.45,249.45,0,0,1-93.47-91.57c-.52-.89-1-1.79-1.54-2.68a249,249,0,0,1-26.91-69.9Q66,291,64.51,279.25c-.34-2.76-.64-5.54-.88-8.33-.14-1.51-.26-3-.36-4.54q-.62-8.72-.62-17.55l2.62-1.44c1.82-1,3.64-2,5.48-2.91l.24-.12q7.31-3.75,14.77-7l.24-.1q3.39-1.48,6.8-2.87,2.63-1.08,5.28-2.08l.35-.13,2.44-.91q6.24-2.3,12.56-4.27l.25-.08c1.44-.45,2.88-.89,4.33-1.32l.22-.06c4.06-1.2,8.14-2.28,12.25-3.27,1.14-.28,2.3-.55,3.45-.81l.27-.07L136,221h0l.24,0c.92-.21,1.84-.4,2.76-.6l.41-.09,1.82-.36c.6-.12,1.2-.25,1.81-.36,2.47-.47,4.94-.91,7.4-1.3a.75.75,0,0,1,.24,0c1.39-.23,2.76-.44,4.15-.64l.11,0c3-.44,6-.83,9-1.17q3.24-.34,6.46-.62l.2,0c.45-.05.91-.08,1.36-.12,1.9-.16,3.8-.28,5.7-.39a9.08,9.08,0,0,1,.91,0,.86.86,0,0,1,.23,0c4.85-.27,9.69-.41,14.55-.41h.24c1.4,0,2.79,0,4.18,0,1.84,0,3.67.07,5.49.15h.24c.94,0,1.88.07,2.82.11q8.7.42,17.38,1.4c.23,0,.48,0,.72.09s.57.06.86.1l.33,0c3.27.4,6.53.85,9.79,1.37l2.18.36a.67.67,0,0,1,.24,0c1,.17,2,.34,3.06.53a1,1,0,0,1,.24.05c.66.1,1.3.22,2,.35q6.55,1.23,13,2.79l.25.06,4.1,1,1.13.31c1.45.37,2.9.77,4.35,1.18a1.05,1.05,0,0,1,.24.06q7.32,2.05,14.55,4.54l.25.09q2.25.78,4.5,1.6l.73.27c1.6.59,3.18,1.19,4.76,1.82a.65.65,0,0,1,.23.09q7.48,2.91,14.81,6.31a1.33,1.33,0,0,1,.24.11c1.39.64,2.76,1.29,4.13,2,.75.36,1.5.72,2.25,1.1,1.29.64,2.57,1.29,3.86,2l.23.11c1.76.92,3.51,1.84,5.25,2.81Z"/><path class="cls-6" d="M324.35,256.75Q324,269,322.4,281q-.52,4.1-1.2,8.15-1.06,6.61-2.51,13.14a249.73,249.73,0,0,1-98.08,149.15c1.29-.95,2.58-1.91,3.85-2.9a248.7,248.7,0,0,1-27.86,18.12l-3,1.69-.08,0V367.54h.92c33.82,0,66.4,1.64,97,4.69l.31,0a249.14,249.14,0,0,0,26.86-70c.43-1.93.83-3.88,1.2-5.83.14-.68.26-1.37.4-2.06.16-.86.33-1.74.47-2.61s.31-1.74.45-2.62q.69-4.05,1.23-8.15C323.39,273,324.07,264.91,324.35,256.75Z"/><path class="cls-6" d="M224.46,448.56c-1.27,1-2.56,1.95-3.85,2.9A261,261,0,0,1,193.5,469v-.63l.08,0,3-1.69A248.7,248.7,0,0,0,224.46,448.56Z"/><path class="cls-6" d="M324.5,248.23c0,.8,0,1.61,0,2.42l0,1.84c0,1.43-.06,2.84-.11,4.26-.28,8.16-1,16.27-2,24.27q-.54,4.1-1.23,8.15c-.14.88-.29,1.74-.45,2.62s-.31,1.75-.47,2.61c-.14.69-.26,1.38-.4,2.06-.38,2-.79,3.88-1.22,5.82a250.37,250.37,0,0,1-27.15,70c-30.58-3.05-63.16-4.69-97-4.69h-.92V213.12h.1c1.4,0,2.79,0,4.18,0,1.84,0,3.67.07,5.49.14l.24,0c1.14,0,2.28.08,3.42.15,5.38.27,10.76.71,16.11,1.32l.72.09c.47,0,.94.1,1.41.16l.32,0c3.32.4,6.62.87,9.92,1.4l2.17.37a1,1,0,0,1,.24,0c1,.17,2.05.35,3.07.55l.24,0,1.94.37q6.56,1.26,13.06,2.86l.25.06c1.37.33,2.74.69,4.1,1.05.38.09.75.19,1.13.3,1.45.38,2.9.78,4.35,1.21l.24.07q7.33,2.1,14.55,4.67a1,1,0,0,1,.25.09c1.5.52,3,1.06,4.5,1.64.25.08.49.17.73.27,1.6.59,3.18,1.21,4.76,1.85l.23.1q7.5,3,14.81,6.5l.24.11c2,1,4,1.93,5.93,2.94.72.36,1.43.72,2.13,1.1s1.46.76,2.18,1.15l.23.13c1.53.8,3.05,1.64,4.56,2.49l.69.39Z"/></g><g id="axes"><path class="cls-1" d="M188.59,387.83a39,39,0,0,0-4.83,3.11,60.2,60.2,0,0,0-5.45,5.5,1.73,1.73,0,0,0,0,2.65c4.81,4.88,9.57,9.79,14.36,14.68a13.25,13.25,0,0,0,1.39,1.07L206,402.48a32.66,32.66,0,0,1,2.92-3c1.42-1.14,1.09-2.24.23-3.45a24.78,24.78,0,0,0-8.45-7.21l-1.9-1.08c3.73,0,12.09,3.05,15.58,5.82a36,36,0,0,1,10.45,12.47c.86,1.8.88,4.08.95,6.15,0,.9-.78,1.82-1.48,3.29a58.73,58.73,0,0,0-2.73-5.54,53,53,0,0,0-5.1-7.1c-2-2.23-3.79-2-6,0-4.41,4.11-8.84,8.18-13.25,12.28-.47.45-.89.95-1.34,1.42,1.9,2,3.65,3.86,5.48,5.68,3,3,6,5.92,9,8.82,1,1,1.49,1.94.36,3.06s-2.05.23-2.83-.62c-4.13-4.44-8.29-8.86-12.34-13.38-1.28-1.42-2.12-1.48-3.44,0-4.09,4.56-8.29,9-12.49,13.51-1.35,1.44-2.8,1.31-3.18-.32a3.1,3.1,0,0,1,1-2.3c4.41-4.45,8.91-8.82,13.37-13.21.33-.32.63-.67,1.07-1.14-2.35-2.34-4.61-4.69-7-6.91-2.84-2.66-5.77-5.21-8.69-7.79-1.26-1.12-3.3-1.05-4.78.71a79.38,79.38,0,0,0-5.73,8.1,34.19,34.19,0,0,0-2,4.08c-2.21-1.49-2.87-5-1.39-7.84,4.71-9.09,11.51-15.77,21.73-18.37l4.43-1.14Z"/></g><g id="Ribbon"><path class="cls-7" d="M75.83,382.48a72.65,72.65,0,0,1-8-2.16c-4-1.25-4.52-2.43-8.18-2.43-1.2,0-.49-.68-1.56-.42l-.34-1.36-6.35-64.24q-16,1.81-31.18,4.07l16.38,34.59L20.18,389C37.89,386.39,56.5,384.19,75.83,382.48Z"/><polygon class="cls-6" points="49.51 378.38 75.88 373.32 75.83 382.48 49.51 378.38"/><path class="cls-7" d="M350.68,350.28l16.39,38.49c-17.72-2.63-36.33-4.83-55.65-6.54a70.51,70.51,0,0,0,8-2.16c4-1.25,4.52-2.42,8.18-2.42,1.2,0,.49-.68,1.56-.43l.09-.37c2.84.42,5.65.84,8.45,1.28V311.84q15,1.73,29.33,3.86Z"/><path class="cls-8" d="M337.74,305.06v73.07c-2.8-.44-5.61-.86-8.45-1.28q-8.82-1.29-17.91-2.41c-3.24-.4-6.5-.78-9.8-1.14A257.2,257.2,0,0,0,328,303.59C331.27,304.06,334.51,304.55,337.74,305.06Z"/><path class="cls-8" d="M328,303.59a257.2,257.2,0,0,1-26.4,69.71c-2.91-.32-5.85-.64-8.8-.93l-1-.1h-.1l-.31,0c-30.58-3.05-63.16-4.69-97-4.69h-.92a980.38,980.38,0,0,0-98,4.88H95.4l-.86.09c-3,.3-5.87.62-8.79,1q-5,.55-9.89,1.17c-6,.76-12,1.58-17.89,2.45-2.83.42-5.62.85-8.4,1.3h-.15V305.32c3.26-.52,6.56-1,9.88-1.5,3-.44,5.93-.86,8.93-1.26a1,1,0,0,1,.26,0l.11,0a953.59,953.59,0,0,1,124.9-8.05h.92a956.66,956.66,0,0,1,124.13,7.82h0l.12,0,.38,0C322.06,302.75,325,303.16,328,303.59Z"/><path class="cls-6" d="M337.74,378.13l-26.32,4.1,0-7.79q9.11,1.13,17.91,2.41C332.13,377.27,334.94,377.69,337.74,378.13Z"/></g><g id="Heights"><path class="cls-9" d="M222.61,306.16c.22.39.59.18.89.19,2.35.12,4.7.24,7.06.29.8,0,1,.23,1,1.06q0,20.07,0,40.13c0,1.92,0,3.85,0,5.77,0,.62-.15.79-.77.76-3.42-.16-6.83-.31-10.25-.4-.71,0-.62-.4-.62-.83,0-4.28,0-8.56,0-12.84,0-.82-.21-1.13-1-1.06s-2.13-.4-2.69.16-.13,1.76-.12,2.67c0,2.76.07,5.51.15,8.26,0,.62-.13.74-.76.72-3.35-.11-6.7-.32-10-.1-.87.05-1-.21-1-1q0-20.37,0-40.72c0-.79.19-1,1-.95,3.18.09,6.37.13,9.55.1.95,0,1.12.31,1.11,1.17,0,6.27,0,12.55,0,18.82,0,.79.25,1,1,1,.93,0,1.85,0,2.78.05.24-.33.12-.7.12-1.06q0-10.29,0-20.58c0-1.4,0-1.4,1.29-1.62h.6a.26.26,0,0,0,.39,0Z"/><path class="cls-10" d="M96.37,356.93V314.32c3.62-.45,7.24-.89,10.86-1.38.76-.11.69.28.69.77,0,6.34,0,12.68,0,19,0,.91.22,1.15,1.1,1s2,.07,2.57-.42.17-1.69.17-2.57q0-9.76,0-19.52c0-.8.21-1,1-1.1,3.2-.26,6.4-.61,9.6-.95.71-.07,1,0,1,.89q0,22.89,0,45.8c0,.71-.17.94-.9,1q-5.05.42-10.1,1c-.77.08-.62-.35-.62-.77,0-4.28,0-8.56,0-12.84,0-.76-.11-1.1-1-.87a5.5,5.5,0,0,1-1.67.2c-1,0-1.26.35-1.22,1.35.13,3.28.13,6.57.22,9.85,0,.64-.16.8-.8.85C103.66,355.91,100,356.4,96.37,356.93Z"/><path class="cls-11" d="M183.22,330a71.09,71.09,0,0,0,.55,12.2,8,8,0,0,0,.44,1.52,1.21,1.21,0,0,0,1.12.86c.57,0,.87-.39,1.09-.87a7.32,7.32,0,0,0,.53-2.61c.05-.8,0-1.59.07-2.39s.08-1.3-.93-1c-.37.1-.34-.19-.34-.42,0-2.85,0-5.7,0-8.56,0-.42.19-.48.54-.48l13.14,0c.38,0,.52.1.53.5.09,5.48.06,10.95-1.8,16.21-.22.62-.46,1.24-.73,1.84a10.43,10.43,0,0,1-7.77,6.32,21.74,21.74,0,0,1-9,0,11,11,0,0,1-7.82-6.44,26.8,26.8,0,0,1-2.34-9.5,60.32,60.32,0,0,1,.75-17.33,24.23,24.23,0,0,1,1-3.63c2.16-5.87,6.27-8.8,12.56-9,7.38-.27,12.62,4.25,13.66,11.74a39.62,39.62,0,0,1,.37,5.65c0,.56-.17.73-.74.72-3.42,0-6.84-.05-10.26,0-.77,0-.92-.26-.91-1a23,23,0,0,0-.4-6.14c-.2-.81-.3-1.87-1.42-1.88s-1.23,1-1.42,1.86a28.05,28.05,0,0,0-.51,5.64C183.17,325.84,183.22,327.9,183.22,330Z"/><path class="cls-12" d="M263.61,342.7c0-.73,0-1.46,0-2.19,0-.55.11-.73.72-.65,3.32.4,6.65.78,10,1.07.86.08.91.41.86,1.09a14.31,14.31,0,0,0,.21,4.75,4.24,4.24,0,0,0,.5,1.18,1.73,1.73,0,0,0,1.8.8,1.4,1.4,0,0,0,1.17-1.3c.48-2.42.15-4.62-1.73-6.4a21.54,21.54,0,0,0-3.86-2.79,32.77,32.77,0,0,1-4.2-3,15,15,0,0,1-5.41-11.5,19,19,0,0,1,.25-4.46c.91-4.36,3.58-6.92,8.15-7.69a20.46,20.46,0,0,1,10.68,1c4.56,1.7,6.95,5.19,7.79,9.86a25.43,25.43,0,0,1,.24,6.75c-.06.61-.23.66-.78.55-3.38-.68-6.77-1.3-10.19-1.72-.55-.07-.71-.25-.66-.82a16,16,0,0,0,.06-4,4.84,4.84,0,0,0-.58-1.78,1.74,1.74,0,0,0-1.78-1,1.59,1.59,0,0,0-1.36,1.4,6.92,6.92,0,0,0,1.82,7,10,10,0,0,0,2.25,1.63q2.32,1.34,4.54,2.85c4.79,3.27,6.84,7.84,6.54,13.55a19.61,19.61,0,0,1-.46,3.74,8.85,8.85,0,0,1-7.68,7.07,20.47,20.47,0,0,1-11.13-1.25c-4.54-1.8-6.83-5.34-7.52-10.05A22.61,22.61,0,0,1,263.61,342.7Z"/><path class="cls-13" d="M128.08,332.43c0-7.16,0-14.33,0-21.5,0-.71.11-1,.93-1.07,6.45-.51,12.9-1,19.36-1.36.67,0,.81.14.81.78,0,3.35-.13,6.71.13,10.05,0,.66-.19.75-.76.78-2.72.14-5.43.35-8.15.5-.56,0-.72.23-.71.77,0,1.72,0,3.45,0,5.17,0,.61.34.53.7.51,2-.13,4.11-.24,6.16-.42.68-.05.9.09.9.83,0,2.88,0,5.77.06,8.66,0,.72-.29.81-.85.84-2.09.12-4.18.29-6.26.39-.56,0-.72.2-.71.75,0,1.66.05,3.32,0,5,0,.69.25.74.81.7,2.48-.18,5-.3,7.45-.5.61-.05.79,0,.78.69-.08,3-.13,5.91-.13,8.86,0,.64-.22.75-.79.79q-6.75.44-13.5.92c-1.79.12-3.58.24-5.36.43-.66.07-.75-.16-.75-.74q0-10.9,0-21.81Z"/><path class="cls-14" d="M242.75,336.87c0-5.24,0-10.48,0-15.72,0-.91-.26-1.09-1.09-1.09-1.69,0-3.38-.14-5.07-.2-.51,0-.74-.1-.74-.72q0-5-.1-10.05c0-.75.15-.92.92-.87,6.65.39,13.31.8,19.95,1.32,1.39.11,2.78.26,4.17.34.47,0,.6.19.57.67-.21,3.41-.3,6.82-.18,10.24,0,.58-.13.75-.71.69-1.68-.16-3.38-.2-5.05-.44-1-.14-1.11.26-1.1,1.1,0,6.17,0,12.34,0,18.51,0,4.32,0,8.63,0,12.94,0,.71-.16.87-.88.82q-4.91-.39-9.83-.65c-.73,0-.94-.22-.93-1C242.76,347.49,242.75,342.18,242.75,336.87Z"/><path class="cls-15" d="M165.36,330.33c0,7.14,0,14.27,0,21.4,0,.78-.12,1.08-1,1.1q-5,.14-9.94.47c-.85.05-.73-.39-.73-.89q0-13.79,0-27.57c0-5.24,0-10.49,0-15.73,0-.71.12-1,.9-1,3.28-.09,6.57-.23,9.85-.42.77,0,.92.19.92.92C165.35,315.86,165.36,323.1,165.36,330.33Z"/></g><g id="inthe"><text class="cls-16" transform="translate(160.08 281.47)">IN THE</text></g><g id="Fortnite"><path class="cls-4" d="M313.6,263.42l-5.24-.41q-8.62-.63-17.26-1.23a5.85,5.85,0,0,1-5.59-6.31v-6.41q0-26.9,0-53.79a6.15,6.15,0,0,1,5.91-6.44c3.38-.25,6.75-.53,10.12-.81l4.09-.34,9.93-.8.55,0,.63,0,5.27.2v23l-.7,1.25a6.23,6.23,0,0,1-2.9,2.64,7.21,7.21,0,0,1,2.14,5.64v10.27c0,3.28-1.26,7.2-7.24,7.2h-1.78v.05h4.14a6.61,6.61,0,0,1,4.44,1.58l1.9,1.64v23.69Z"/><path class="cls-4" d="M316.51,258.15c-2.58-.2-5.16-.42-7.75-.61q-8.64-.63-17.28-1.24c-.44,0-.53-.18-.49-.55,0-.13,0-.26,0-.39q0-30,0-60.09c0-.65.1-.91.83-1,4.75-.35,9.5-.77,14.25-1.15l9.91-.8a3.25,3.25,0,0,1,.54,0v16.32a.93.93,0,0,1-.95.4c-2-.08-4,.24-6.06.17-1,0-2,.2-2.95.16a.57.57,0,0,0-.67.65q0,3.59,0,7.15c0,.69.46.71.95.71h6.45c1.7,0,1.76.07,1.77,1.73v10.26c0,1.67-.06,1.73-1.77,1.73-2.07,0-4.15,0-6.22,0-1,0-1,.08-1,1,0,3,0,6,0,9,0,.91.06,1,1,1h8.32a1.67,1.67,0,0,1,1.19.25Z"/><path class="cls-4" d="M226.77,258.47a6.21,6.21,0,0,1-5.87-4l0-.05-.21.23a6.07,6.07,0,0,1-4.52,1.83c-2.07,0-4.08,0-6.1,0s-4,0-6,0a6.15,6.15,0,0,1-4.46-1.71,6,6,0,0,1-1.79-4.5q0-26,0-52a6.11,6.11,0,0,1,5.13-6.23c3.72-.72,7.14-1.41,10.46-2.12a7.09,7.09,0,0,1,1.43-.15,6.06,6.06,0,0,1,4.39,1.88,5.58,5.58,0,0,1,.52-.67,6.07,6.07,0,0,1,4.62-1.93l6.13,0,6.21,0a6,6,0,0,1,6.26,6.18q.09,18.41.23,36.8l0,3.31q0,7.91.13,15.82a6.06,6.06,0,0,1-5.85,6.4c-3,.23-6.13.5-10,.87A6.46,6.46,0,0,1,226.77,258.47Z"/><path class="cls-4" d="M225.56,220.18q-.69-9-1.37-18c-.18-2.3-.34-4.6-.53-6.9,0-.57,0-.79.69-.78,4.12,0,8.24,0,12.36,0,.6,0,.73.16.73.73q.1,19,.25,37.93.06,9,.15,18c0,.64-.15.82-.79.87-3.36.26-6.71.56-10.06.88a.82.82,0,0,1-1-.6q-4.77-11.56-9.58-23.11a1,1,0,0,1-.12-.52c0,2.15-.05,4.31,0,6.46.15,5,.35,10.05.56,15.07,0,.6-.15.72-.72.71q-6.06,0-12.13,0c-.57,0-.73-.12-.73-.71q0-26,0-52c0-.55.14-.73.69-.84q5.3-1,10.57-2.13c.54-.12.7.05.88.5q5,12.44,10,24.86C225.8,220.61,225.55,220.35,225.56,220.18Z"/><path class="cls-4" d="M91.26,211.87l2-.65c.64,0,1.08.65,1.72.64a5.95,5.95,0,0,1,6.18,6.26c-.12,4.43-.21,8.85-.27,13.15-.06,3.46,10.11,25,6.64,25h-1.06c0,2.3-14.25.14-14.25,2.44h0c0,3.31-3,3.25-6.24,3.83-4,.72-8.31,1.52-13.5,2.53a6.78,6.78,0,0,1-1.32.13A5.83,5.83,0,0,1,67,263.49,6,6,0,0,1,65.27,259c0-9.26,0-18.47,0-27.68V219.05q0-13.41,0-26.82a6.12,6.12,0,0,1,6.41-6.41c4.48,0,8.93,0,13.38,0H97.71a6.11,6.11,0,0,1,4.74,1.95,6,6,0,0,1,1.49,4.81c-.39,3.95-.79,8.26-1.26,13.55a5.88,5.88,0,0,1-6.05,5.52Z"/><path class="cls-4" d="M70.76,225.57q0-16.68,0-33.35c0-.77.21-.92.94-.91q13,0,26,0c.56,0,.84,0,.77.74q-.67,6.8-1.27,13.61c0,.55-.36.52-.74.51-3.29,0-6.58,0-9.87,0-.64,0-.88.09-.87.82.05,3.16,0,6.33,0,9.49,0,.67.12.92.87.91,2.8,0,5.59,0,8.39,0,.49,0,.67.08.66.63q-.18,6.6-.28,13.21c0,.52-.2.57-.63.56-2.75,0-5.5,0-8.24,0-.64,0-.76.19-.76.78,0,7.88,0,15.76,0,23.64,0,.61-.1.87-.78,1-4.53.81-9,1.67-13.57,2.54-.71.14-.68-.19-.68-.68Q70.77,242.29,70.76,225.57Z"/><path class="cls-4" d="M279.93,260.86q-3.3,0-6.61,0l-6.6,0a6.07,6.07,0,0,1-4.8-2.06,6.19,6.19,0,0,1-1.47-4.19q0-9.09,0-18.15,0-8.25,0-16.5h-1.93a5.9,5.9,0,0,1-6.15-6.11c0-4.38,0-8.77,0-13.15a6,6,0,0,1,5.88-6.17l25.14-1.28.67,0c1.33-.07,2.66-.14,4-.24l.59,0a6,6,0,0,1,4.27,1.73,6.1,6.1,0,0,1,1.73,4.45c0,4.32,0,8.62,0,12.93a6.12,6.12,0,0,1-1.75,4.53,6.06,6.06,0,0,1-4.44,1.77h-.15c-.69,0-1.39,0-2.09,0,0,3.8,0,7.61,0,11.41v8.87q0,8,0,15.94a6,6,0,0,1-6.25,6.31Z"/><path class="cls-4" d="M280.75,234c0,6.85,0,13.69,0,20.53,0,.64-.14.81-.8.8q-6.64,0-13.29,0c-.63,0-.75-.19-.75-.77q0-19.64,0-39.27c0-.68-.14-.91-.87-.89-2.2.05-4.41,0-6.61,0-.47,0-.61-.11-.6-.6q0-6.6,0-13.21c0-.54.19-.64.66-.66l25.15-1.28c1.61-.08,3.21-.16,4.82-.29.56,0,.67.14.67.67q0,6.5,0,13c0,.6-.13.8-.76.78-2.31,0-4.61,0-6.92,0-.61,0-.77.15-.76.76C280.76,220.41,280.75,227.23,280.75,234Z"/><path class="cls-4" d="M179.37,257.15a6.21,6.21,0,0,1-4.54-1.79,6.27,6.27,0,0,1-1.76-4.62q0-7.74,0-15.48v-8.58q0-5.55,0-11.1h-1.73a6,6,0,0,1-6.13-6.17c0-4.36,0-8.72,0-13.08a5.87,5.87,0,0,1,5.95-6.12l.62,0q7.23.6,14.47,1.16l6.12.49,3.4.27c1.9.16,3.8.32,5.7.46a5.85,5.85,0,0,1,5.57,6c0,4.45,0,8.9,0,13.35a5.88,5.88,0,0,1-6,6h-2.18q0,6,0,12.07,0,10.32,0,20.62a6.12,6.12,0,0,1-6.37,6.41l-6.6,0-6.45,0Z"/><path class="cls-4" d="M178.57,230.86c0-6.68,0-13.37,0-20.06,0-.56-.11-.73-.71-.72-2.15,0-4.3,0-6.45,0-.5,0-.71-.06-.71-.65q0-6.57,0-13.14c0-.48.07-.65.64-.6,6.86.57,13.73,1.1,20.6,1.64,3,.24,6.09.51,9.14.74.44,0,.48.21.48.57,0,4.45,0,8.91,0,13.37,0,.47-.18.54-.59.53-2.28,0-4.56,0-6.84,0-.65,0-.8.17-.8.81,0,12.47,0,24.93,0,37.4,0,.77-.21.91-.94.9q-6.53-.06-13.06,0c-.75,0-.85-.24-.85-.9C178.58,244.13,178.57,237.5,178.57,230.86Z"/><path class="cls-4" d="M241.61,259.13a6,6,0,0,1-6.22-6.26q0-11.1,0-22.21V220.22q0-11.1,0-22.19a6.06,6.06,0,0,1,6.26-6.32c2.31,0,4.57,0,6.82,0h6.86a6,6,0,0,1,6.3,6.23q0,27.5,0,55A6.08,6.08,0,0,1,260,257.3a6,6,0,0,1-4.49,1.83l-7,0-6.81,0Z"/><path class="cls-4" d="M240.89,225.45q0-13.72,0-27.44c0-.62.12-.82.79-.81,4.56,0,9.12,0,13.68,0,.55,0,.8.07.8.74q0,27.51,0,55c0,.54-.14.69-.69.69q-6.92,0-13.83,0c-.62,0-.75-.17-.75-.77Q240.91,239.17,240.89,225.45Z"/><path class="cls-4" d="M157.06,259.5a6.09,6.09,0,0,1-5-2.53,6.75,6.75,0,0,1-2.66.52l-6.27,0-6.39,0a6.1,6.1,0,0,1-4.73-2,6.17,6.17,0,0,1-1.55-4.28q0-27.43,0-54.87a6,6,0,0,1,6.23-6.25l3.42,0q3.27,0,6.54,0c2.14,0,4.29,0,6.43,0h.46a19.94,19.94,0,0,1,17.24,9.22c6.23,9.3,9.85,19.14,4.69,29a17.13,17.13,0,0,1-2.16,3.18c1.56,4.73,2.94,18.6,2.94,18.6l.18.52a5.75,5.75,0,0,1-5.11,7.72c-1.49.11-3,.24-4.47.37l-2.62.22-2.12.16c-1.42.11-2.83.22-4.25.37a7.64,7.64,0,0,1-.8,0Z"/><path class="cls-4" d="M171.24,252.4c-.07-.2-.14-.39-.2-.59l-6.9-21.05a.68.68,0,0,1,.23-.91,11.81,11.81,0,0,0,3.18-3.78c4.27-8.15,3.74-16.13-1.33-23.7a14.56,14.56,0,0,0-13-6.78c-5.49.1-11,0-16.48,0-.6,0-.75.14-.75.76q0,27.44,0,54.88c0,.59.13.77.75.76q6.33,0,12.67,0c.71,0,.85-.21.87-.87.15-5.28.34-10.56.52-15.84a1.33,1.33,0,0,0,.1-.34c.1,0,.08.15.16.18q2.65,9.08,5.29,18.16c.16.55.31.78,1,.71,2.17-.24,4.34-.37,6.51-.55,2.37-.19,4.74-.41,7.12-.59C171.27,252.84,171.35,252.72,171.24,252.4ZM154,221a4.87,4.87,0,0,1-2.85,2.89c-.53.19-.77.19-.76-.51,0-2.38,0-4.76,0-7.14s0-4.76,0-7.14c0-.73.27-.75.81-.61a4.14,4.14,0,0,1,2.71,2.37,11.22,11.22,0,0,1,.94,5A12.49,12.49,0,0,1,154,221Z"/><path class="cls-4" d="M115.38,258.7c-9.2-.15-16-4.7-19.7-13.17a33.84,33.84,0,0,1-1.92-5.86,69.92,69.92,0,0,1-1.55-15.49v-.12a63.66,63.66,0,0,1,2.09-17.29,30.4,30.4,0,0,1,1.89-4.92c3.58-7.31,9.86-11.4,18.15-11.83.53,0,1.06,0,1.59,0a23.63,23.63,0,0,1,8.11,1.33c5.38,1.92,9.39,5.81,11.93,11.56a40.83,40.83,0,0,1,3.1,13,89.59,89.59,0,0,1,0,16.7,44.82,44.82,0,0,1-2.67,12c-3.52,9.11-10.82,14.13-20.56,14.13Z"/><path class="cls-4" d="M133.61,216.36A35.92,35.92,0,0,0,131,205.08c-1.78-4-4.51-7.09-8.76-8.6a19.08,19.08,0,0,0-7.57-1c-6.19.32-10.76,3.14-13.52,8.77a26.31,26.31,0,0,0-1.55,4,58.16,58.16,0,0,0-1.86,15.82,63.61,63.61,0,0,0,1.4,14.28,29.25,29.25,0,0,0,1.6,4.93c2.81,6.44,7.69,9.77,14.77,9.88,7.65.13,13.06-3.48,15.82-10.62A39.07,39.07,0,0,0,133.62,232,83.7,83.7,0,0,0,133.61,216.36Zm-16,20.08a19.05,19.05,0,0,1-.69,3.81,3.59,3.59,0,0,1-.46,1,.83.83,0,0,1-1.51,0,5.52,5.52,0,0,1-.76-2.18,65.22,65.22,0,0,1-.75-11c-.07-4.89-.09-9.79.28-14.67a18.51,18.51,0,0,1,.79-4.73c.21-.59.4-1.34,1.21-1.33s1,.75,1.2,1.34a19.83,19.83,0,0,1,.82,5.12c.26,3.54.23,7.09.28,10.72C118,228.42,118,232.44,117.61,236.44Z"/><path class="cls-1" d="M316.75,257.05c-2.58-.2-5.16-.42-7.75-.61q-8.64-.63-17.28-1.23c-.43,0-.53-.19-.49-.56,0-.13,0-.26,0-.39q0-30,0-60.09c0-.64.1-.91.83-1,4.75-.35,9.5-.76,14.25-1.15l9.91-.8a4.87,4.87,0,0,1,.54,0V207.6a.91.91,0,0,1-.95.39c-2-.08-4,.24-6.06.17-1,0-2,.2-2.94.17a.57.57,0,0,0-.68.64c0,2.39,0,4.77,0,7.16,0,.68.46.7.95.7h6.45c1.7,0,1.77.06,1.77,1.73v10.26c0,1.66-.06,1.72-1.77,1.72H307.3c-.95,0-1,.07-1,1q0,4.51,0,9c0,.91.06,1,1,1h8.32a1.72,1.72,0,0,1,1.19.25Z"/><path class="cls-1" d="M225.8,219.08q-.69-9-1.37-18c-.18-2.3-.34-4.6-.53-6.89-.05-.57,0-.79.69-.79q6.18.06,12.36,0c.6,0,.73.17.73.73q.1,19,.25,37.93.06,9,.15,18c0,.64-.15.82-.79.87q-5,.39-10.06.89a.82.82,0,0,1-1-.61q-4.76-11.57-9.58-23.11a1.15,1.15,0,0,1-.12-.52c0,2.15,0,4.31,0,6.46.15,5,.35,10.05.56,15.07,0,.6-.15.72-.72.72q-6.06,0-12.13,0c-.57,0-.73-.13-.73-.72q0-26,0-52c0-.54.14-.73.69-.83q5.3-1,10.57-2.14c.54-.12.7.06.88.5q5,12.44,10,24.86C226,219.51,225.79,219.25,225.8,219.08Z"/><path class="cls-1" d="M71,224.47q0-16.66,0-33.35c0-.77.21-.91.94-.91q13,0,26,0c.56,0,.84,0,.77.73q-.67,6.81-1.27,13.62c0,.55-.36.51-.74.51-3.29,0-6.58,0-9.87,0-.64,0-.88.09-.87.83,0,3.16,0,6.32,0,9.48,0,.68.12.92.87.91,2.8-.05,5.6,0,8.39,0,.49,0,.67.09.66.63q-.18,6.6-.28,13.21c0,.53-.2.57-.63.57-2.75,0-5.49,0-8.24,0-.64,0-.76.19-.76.79,0,7.87,0,15.75,0,23.63,0,.61-.11.88-.79,1q-6.8,1.21-13.57,2.54c-.71.13-.68-.2-.68-.69Q71,241.19,71,224.47Z"/><path class="cls-1" d="M281,233c0,6.84,0,13.68,0,20.52,0,.65-.14.81-.8.8q-6.65,0-13.29,0c-.63,0-.74-.18-.74-.76q0-19.63,0-39.27c0-.69-.14-.91-.87-.9-2.2.06-4.4,0-6.61,0-.47,0-.6-.11-.6-.59q0-6.61,0-13.22c0-.54.19-.63.66-.66l25.16-1.28c1.6-.08,3.21-.16,4.81-.28.56-.05.67.13.67.66q0,6.5,0,13c0,.59-.13.79-.76.78-2.3,0-4.61,0-6.92,0-.6,0-.77.14-.76.76C281,219.31,281,226.13,281,233Z"/><path class="cls-1" d="M178.81,229.77c0-6.69,0-13.38,0-20.06,0-.57-.1-.74-.7-.73-2.15,0-4.31,0-6.46,0-.5,0-.71,0-.7-.65q0-6.57,0-13.14c0-.48.07-.65.64-.6,6.86.57,13.73,1.1,20.6,1.65,3.05.24,6.09.51,9.14.73.44,0,.48.21.48.57,0,4.46,0,8.91,0,13.37,0,.48-.18.54-.59.54-2.28,0-4.56,0-6.84,0-.65,0-.8.17-.8.81,0,12.47,0,24.93,0,37.4,0,.77-.21.91-.94.9-4.35,0-8.7,0-13.06,0-.75,0-.85-.24-.85-.9C178.82,243,178.81,236.4,178.81,229.77Z"/><path class="cls-1" d="M241.13,224.35q0-13.71,0-27.43c0-.63.13-.83.79-.82,4.56,0,9.12,0,13.68,0,.56,0,.8.06.8.73q0,27.51,0,55c0,.55-.14.69-.69.69-4.61,0-9.22,0-13.83,0-.62,0-.75-.17-.75-.76Q241.15,238.07,241.13,224.35Z"/><path class="cls-1" d="M171.48,251.3c-.07-.19-.14-.39-.2-.59l-6.9-21.05a.69.69,0,0,1,.23-.91,11.58,11.58,0,0,0,3.18-3.78c4.27-8.15,3.74-16.13-1.32-23.69a14.57,14.57,0,0,0-13-6.79c-5.5.11-11,0-16.48,0-.61,0-.76.15-.76.76q0,27.44,0,54.88c0,.59.13.77.75.77,4.22,0,8.45,0,12.67,0,.71,0,.85-.21.87-.86.15-5.29.34-10.57.52-15.85a1.26,1.26,0,0,0,.1-.33c.1,0,.08.14.16.18q2.66,9.07,5.29,18.15c.16.55.31.78,1,.71,2.17-.23,4.34-.36,6.51-.54l7.12-.6C171.51,251.74,171.59,251.62,171.48,251.3Zm-17.25-31.45a4.91,4.91,0,0,1-2.85,2.9c-.53.19-.77.18-.76-.52,0-2.38,0-4.76,0-7.14s0-4.76,0-7.14c0-.72.27-.75.81-.6a4.1,4.1,0,0,1,2.71,2.36,11.22,11.22,0,0,1,.94,5A12.43,12.43,0,0,1,154.23,219.85Z"/><path class="cls-1" d="M133.85,215.26A35.93,35.93,0,0,0,131.2,204c-1.78-4-4.51-7.1-8.76-8.61a19.45,19.45,0,0,0-7.57-1c-6.19.32-10.76,3.15-13.52,8.77a26.31,26.31,0,0,0-1.55,4A58.67,58.67,0,0,0,97.94,223a63.58,63.58,0,0,0,1.4,14.27,29.25,29.25,0,0,0,1.6,4.93c2.82,6.44,7.69,9.77,14.77,9.88,7.65.13,13.06-3.47,15.82-10.61a39.24,39.24,0,0,0,2.33-10.57A83.81,83.81,0,0,0,133.85,215.26Zm-16,20.08a19.64,19.64,0,0,1-.68,3.81,3.79,3.79,0,0,1-.47,1,.82.82,0,0,1-1.5,0,5.33,5.33,0,0,1-.77-2.18,65.15,65.15,0,0,1-.75-11c-.07-4.89-.09-9.78.28-14.67a18.51,18.51,0,0,1,.79-4.73c.21-.59.4-1.34,1.21-1.33s1,.75,1.2,1.35a19.7,19.7,0,0,1,.82,5.12c.26,3.54.23,7.09.28,10.71C118.19,227.32,118.25,231.34,117.85,235.34Z"/></g></svg>