<svg id="Layer_1" data-name="Layer 1" xmlns="http://www.w3.org/2000/svg" viewBox="0 0 300 300"><defs><style>.cls-1{fill:#fff;}</style></defs><title>i-heart-radio-logo</title><path class="cls-1" d="M38,249.87a2.74,2.74,0,0,1,2.68-2.74h18c5.9,0,10.63,1.78,13.65,4.8a13.25,13.25,0,0,1,3.71,9.48v.13c0,7.9-5.35,12.49-12.83,13.94l11.94,15.37a3,3,0,0,1,.89,2,2.84,2.84,0,0,1-2.74,2.68,3.15,3.15,0,0,1-2.54-1.44L57.24,276.5H43.45v16.27a2.72,2.72,0,1,1-5.43,0ZM58.2,271.63c7.21,0,12.36-3.71,12.36-9.88v-.14c0-5.9-4.53-9.47-12.29-9.47H43.45v19.49Z"/><path class="cls-1" d="M84.69,291.61,104.19,249a3.53,3.53,0,0,1,3.43-2.4h.27a3.46,3.46,0,0,1,3.37,2.4l19.5,42.56a3.77,3.77,0,0,1,.34,1.37,2.61,2.61,0,0,1-2.61,2.61,3,3,0,0,1-2.68-2l-5-11H94.44l-5,11.18a2.72,2.72,0,0,1-2.61,1.86,2.46,2.46,0,0,1-2.47-2.47A3.18,3.18,0,0,1,84.69,291.61Zm34-14.07-11-24.58L96.57,277.54Z"/><path class="cls-1" d="M141.46,249.87a2.73,2.73,0,0,1,2.67-2.74h14c15.11,0,25.54,10.36,25.54,23.89v.14c0,13.51-10.43,24-25.54,24h-14a2.73,2.73,0,0,1-2.67-2.74Zm16.67,40.3c12.15,0,19.91-8.24,19.91-18.88v-.13c0-10.65-7.76-19-19.91-19H146.87v38Z"/><path class="cls-1" d="M195.6,249.53a2.71,2.71,0,1,1,5.42,0v43.24a2.71,2.71,0,1,1-5.42,0Z"/><path class="cls-1" d="M213,271.29v-.13c0-13.25,9.95-24.86,24.57-24.86S262,257.77,262,271v.14C262,284.4,252,296,237.4,296S213,284.54,213,271.29Zm43.38,0v-.13c0-10.92-8-19.84-19-19.84s-18.81,8.78-18.81,19.7v.14c0,10.91,8,19.83,18.95,19.83S256.35,282.2,256.35,271.29Z"/><path class="cls-1" d="M200.17,6a61,61,0,0,0-50.32,27.21A61,61,0,0,0,99.53,6,60.2,60.2,0,0,0,39.31,66.21c0,21.1,13.37,36.32,27.33,50.39l54.59,51.61A4.49,4.49,0,0,0,128.8,165V124.74a21.05,21.05,0,1,1,42.1,0V165a4.49,4.49,0,0,0,7.57,3.26l54.59-51.61c14-14.07,27.32-29.29,27.32-50.39A60.19,60.19,0,0,0,200.17,6Zm-105,106.64a4.19,4.19,0,0,1-5.89.36c-18-15.94-27.1-32.57-27.1-49.44v-.2c0-14.5,8.85-31,20.58-38.35a4.17,4.17,0,0,1,4.43,7.07c-9.34,5.86-16.67,19.6-16.67,31.28v.2c0,14.38,8.18,28.91,24.29,43.19A4.17,4.17,0,0,1,95.19,112.64ZM122,97.16a4.18,4.18,0,0,1-5.68,1.6C104.16,91.94,96,78.53,95.9,65.37v-.13a33.65,33.65,0,0,1,18-29.73,4.17,4.17,0,1,1,3.89,7.38A25.33,25.33,0,0,0,104.25,65.3c0,10.26,6.52,20.77,16.18,26.18A4.18,4.18,0,0,1,122,97.16ZM149.85,86.5A18.11,18.11,0,1,1,168,68.4,18.1,18.1,0,0,1,149.85,86.5Zm33.5,12.26a4.17,4.17,0,0,1-4.08-7.28c9.66-5.41,16.16-15.92,16.18-26.18a25.33,25.33,0,0,0-13.58-22.41,4.17,4.17,0,1,1,3.89-7.38,33.65,33.65,0,0,1,18,29.73v.13C203.74,78.53,195.54,91.94,183.35,98.76Zm54.15-35.2c0,16.87-9.12,33.5-27.1,49.44a4.17,4.17,0,1,1-5.53-6.25C221,92.47,229.16,77.94,229.16,63.56v-.2c0-11.68-7.33-25.42-16.68-31.28A4.17,4.17,0,0,1,216.92,25c11.73,7.36,20.58,23.85,20.58,38.35Z"/><path class="cls-1" d="M60.36,184.42H74.79V203.9H93.3V184.42h14.42v52H93.3V216.69H74.79v19.77H60.36Z"/><path class="cls-1" d="M111.88,216.54v-.15c0-11.74,8.4-21,20.3-21,13.9,0,20.29,10.18,20.29,22,0,.89,0,1.93-.07,2.9H125.48c1.12,4.39,4.32,6.62,8.7,6.62,3.35,0,6-1.27,8.92-4.1l7.81,6.47c-3.87,4.91-9.44,8.18-17.47,8.18C120.8,237.43,111.88,229,111.88,216.54Zm27.36-3.69a6.8,6.8,0,0,0-7-7.09c-3.72,0-6.66,2.87-7,7.09Z"/><path class="cls-1" d="M200,196.25h14.12v8.1c2.31-5.5,6-9.07,12.71-8.77v14.87h-1.18c-7.36,0-11.53,4.23-11.53,13.53v12.48H200Z"/><path class="cls-1" d="M235.63,224V207.62h-4.75V196.25h4.75V186.06h14.13v10.19h9.36v11.37h-9.36v13.61c0,2.82,1.26,4,3.86,4A12.3,12.3,0,0,0,259,223.9V235a20,20,0,0,1-9.81,2.31C240.69,237.28,235.63,233.56,235.63,224Z"/><path class="cls-1" d="M46.52,180.67a7.5,7.5,0,1,0,7.5,7.5A7.5,7.5,0,0,0,46.52,180.67Z"/><path class="cls-1" d="M46.78,199.2h-.52a7.38,7.38,0,0,0-7.38,7.37v29.89H54.15V206.57A7.37,7.37,0,0,0,46.78,199.2Z"/><path class="cls-1" d="M194.51,216.25c0-12.49-8.92-20.89-21.56-20.89-8,0-13.6,3.27-17.47,8.18l7.81,6.47c2.9-2.83,5.57-4.1,8.92-4.1,4.34,0,7.51,2.19,8.66,6.48v.31l-9.3,0C160,212.89,154,217.2,154,225.36c0,7.86,5.6,12.07,15.25,12.07a16.2,16.2,0,0,0,11.93-4.84v3.87h13.36V216.79c0-.13,0-.26,0-.39Zm-21.1,12.18c-3.66.16-5.83-2-5.83-4.48s1.94-3.72,5.49-3.72h8.06v.44C181.08,222.32,180.4,228.13,173.41,228.43Z"/></svg>