<svg id="Layer_1" data-name="Layer 1" xmlns="http://www.w3.org/2000/svg" viewBox="0 0 300 160"><defs><style>.cls-1{fill:#fff;}</style></defs><title>SHlogoWhite</title><path class="cls-1" d="M69,107.79,1,79.23V72.84l.45-.18L69,44.34v7.88l-.46.19L11.23,76,69,99.9Z"/><path class="cls-1" d="M231,107.05v-7.9l57.75-23.86L231,51.47V43.6l68,28.49v6.39Z"/><path class="cls-1" d="M136.57,103.75c-5.52,6.14-14.73,9.21-24.86,9.21-10.43,0-19.49-3.23-25.32-9.82a22.91,22.91,0,0,1-6.29-15.5h7.82A18.43,18.43,0,0,0,93.6,99.45c4.45,4.3,10.75,6.14,18.11,6.14,8,0,14.12-1.84,18.11-5.68,2.61-2.76,4.14-5.37,4.14-9.82,0-6.91-5.06-12.73-14.12-14l-14.88-2c-6.29-.77-13-2.76-17.34-7.67a18,18,0,0,1-4.3-12.13A19.74,19.74,0,0,1,90.07,39.6c5.38-5.06,12.9-7.36,20.87-7.36,9.21,0,18,2.91,23.18,9A24.39,24.39,0,0,1,140,55.41h-7.67a20.11,20.11,0,0,0-3.84-9.21c-3.53-4.14-9.51-6.75-17.5-6.75-6,0-10.28,1.07-13.65,3.53-3.84,2.76-6.14,6.44-6.14,10.59,0,6.44,3.22,11.35,14.88,12.89l14.58,2c14.43,2,21.18,11.82,21.18,21.18A20.54,20.54,0,0,1,136.57,103.75Z"/><path class="cls-1" d="M209.47,111V60.78c0-13.35-5.83-21.33-19.8-21.33C170.8,39.45,164.2,56,164.2,72.6V111h-7.68V.16h7.68V48.35c4.29-9.82,15.19-16.11,25.93-16.11,17.65,0,27,10.89,27,28.08V111Z"/><path class="cls-1" d="M57.35,158.36a5.87,5.87,0,0,1-4.27,1.48,5.82,5.82,0,0,1-4.24-1.48,4.25,4.25,0,0,1-1.27-3h2.2a2.56,2.56,0,0,0,1.06,2,4.18,4.18,0,0,0,2.36.6,3.54,3.54,0,0,0,2.4-.73,1.84,1.84,0,0,0,.65-1.42c0-1-.7-1.68-2.05-1.86l-2.95-.39a3.41,3.41,0,0,1-3.2-3.52,3.77,3.77,0,0,1,1.08-2.56A5.36,5.36,0,0,1,53,146.07a5.2,5.2,0,0,1,4.16,1.66,3.73,3.73,0,0,1,.93,2.5H55.88a2.39,2.39,0,0,0-.76-1.63,3.05,3.05,0,0,0-2.14-.69,3.38,3.38,0,0,0-1.53.26,2,2,0,0,0-1.32,1.75c0,1.09.67,1.56,1.76,1.72.73.1,1.76.2,3.16.43a3.73,3.73,0,0,1,2.3,6.29Z"/><path class="cls-1" d="M61.88,143.41v-2.59h2.56v2.59ZM62,159.5V146.41h2.25V159.5Z"/><path class="cls-1" d="M71.63,159.65c-1.91,0-2.74-1.13-2.74-3.2V140.82h2.2v15.49c0,.88.28,1.35,1.19,1.35a7.23,7.23,0,0,0,.9,0v1.87A5.91,5.91,0,0,1,71.63,159.65Z"/><path class="cls-1" d="M76.21,143.41v-2.59h2.56v2.59Zm.15,16.09V146.41h2.26V159.5Z"/><path class="cls-1" d="M91.94,158.41a5.18,5.18,0,0,1-3.78,1.43,5.31,5.31,0,0,1-4.76-2.44A7.92,7.92,0,0,1,82.29,153a7.81,7.81,0,0,1,1.08-4.42,5.34,5.34,0,0,1,4.77-2.46,5,5,0,0,1,5.27,4.84H91.19a3.54,3.54,0,0,0-.93-2.12,3,3,0,0,0-2.12-.81c-2.88,0-3.6,2.49-3.6,5s.67,5,3.62,5a3,3,0,0,0,2.2-.88,3.4,3.4,0,0,0,.88-2h2.23A5.14,5.14,0,0,1,91.94,158.41Z"/><path class="cls-1" d="M105.7,158.31a5.88,5.88,0,0,1-7.91,0,8.6,8.6,0,0,1,0-10.71,5.88,5.88,0,0,1,7.91,0,8.64,8.64,0,0,1,0,10.71Zm-1.6-9.42a3.45,3.45,0,0,0-4.71,0,7.37,7.37,0,0,0,0,8.12,3.45,3.45,0,0,0,4.71,0,7.42,7.42,0,0,0,0-8.12Z"/><path class="cls-1" d="M119.62,159.5v-8.31c0-2-.8-3.13-2.87-3.13a3.21,3.21,0,0,0-2.85,2,8.64,8.64,0,0,0-.46,3.34v6.08h-2.2V146.41h1.91l.19,2a4.42,4.42,0,0,1,4-2.3c3,0,4.53,1.79,4.53,4.81v8.62Z"/><path class="cls-1" d="M134.63,159.5v-8.31c0-2-.81-3.13-2.88-3.13a3.21,3.21,0,0,0-2.84,2,8.65,8.65,0,0,0-.47,3.34v6.08h-2.2V140.82h2.2v7.32a4.45,4.45,0,0,1,3.83-2.07c3,0,4.56,1.79,4.56,4.81v8.62Z"/><path class="cls-1" d="M150.82,159.68a1.87,1.87,0,0,1-1.89-2h-.05a4.76,4.76,0,0,1-4.22,2.16c-3,0-4.5-2-4.5-4,0-1.68,1.09-3.88,4.66-4.09l4-.23v-1a2.55,2.55,0,0,0-.67-2,2.92,2.92,0,0,0-2.15-.67,3.24,3.24,0,0,0-2.38.77,2.15,2.15,0,0,0-.64,1.58h-2.15a3.86,3.86,0,0,1,1.14-2.74,5.63,5.63,0,0,1,4-1.4c2.54,0,4,1.08,4.61,2.51a5,5,0,0,1,.39,2v6.34c0,.69.28.88.72.88a3.16,3.16,0,0,0,.57-.08v1.63A3.1,3.1,0,0,1,150.82,159.68Zm-2-6.49-3.52.21c-1.31.07-2.87.69-2.87,2.35,0,1.16.73,2.25,2.59,2.25a3.7,3.7,0,0,0,2.69-1.06,4.22,4.22,0,0,0,1.11-3Z"/><path class="cls-1" d="M161.48,148.45a3.59,3.59,0,0,0-2.48,1c-1.06,1-1.2,2.82-1.2,4.19v5.82h-2.17V146.41h1.94l.18,2.3a4.08,4.08,0,0,1,3.91-2.38,6.07,6.07,0,0,1,1,.08v2.14A7.17,7.17,0,0,0,161.48,148.45Z"/><path class="cls-1" d="M168.1,159.65c-1.91,0-2.74-1.13-2.74-3.2V140.82h2.2v15.49c0,.88.28,1.35,1.19,1.35a7,7,0,0,0,.9,0v1.87A5.81,5.81,0,0,1,168.1,159.65Z"/><path class="cls-1" d="M183.23,153.68H174a4.82,4.82,0,0,0,1.27,3.28,3.7,3.7,0,0,0,4.84.08,2.79,2.79,0,0,0,.77-1.42H183a4.81,4.81,0,0,1-2,3.23,6,6,0,0,1-3.33,1,5.59,5.59,0,0,1-4.35-2,7.4,7.4,0,0,1-1.63-4.87,8,8,0,0,1,1-4.19,5.61,5.61,0,0,1,4.94-2.74,5.27,5.27,0,0,1,4,1.68,6.76,6.76,0,0,1,1.66,4.61Zm-3-4.56a3.14,3.14,0,0,0-2.59-1.19c-2.38,0-3.55,1.94-3.6,3.86h7A4.56,4.56,0,0,0,180.21,149.12Z"/><path class="cls-1" d="M202.74,159.5v-8.33c0-1.84-.59-3.11-2.66-3.11a2.69,2.69,0,0,0-2,.88,5.07,5.07,0,0,0-1.11,3.6v7h-2.2v-8.33c0-1.84-.54-3.11-2.64-3.11a2.77,2.77,0,0,0-2.22,1.17,5.73,5.73,0,0,0-.88,3.31v7h-2.2V146.41h1.91l.21,1.86a4,4,0,0,1,3.67-2.2,3.81,3.81,0,0,1,3.91,2.48,4.31,4.31,0,0,1,4-2.48c3,0,4.37,1.91,4.37,4.81v8.62Z"/><path class="cls-1" d="M209.29,159.5v-3.08h3.05v3.08Z"/><path class="cls-1" d="M225.27,159.5v-8.31c0-2-.8-3.13-2.87-3.13a3.21,3.21,0,0,0-2.84,2,8.65,8.65,0,0,0-.47,3.34v6.08h-2.2V146.41h1.91l.19,2a4.42,4.42,0,0,1,4-2.3c3,0,4.52,1.79,4.52,4.81v8.62Z"/><path class="cls-1" d="M242.42,153.68h-9.26a4.82,4.82,0,0,0,1.27,3.28,3.7,3.7,0,0,0,4.84.08,2.8,2.8,0,0,0,.78-1.42h2.14a4.78,4.78,0,0,1-2,3.23,6,6,0,0,1-3.33,1,5.59,5.59,0,0,1-4.35-2,7.46,7.46,0,0,1-1.63-4.87,8,8,0,0,1,1-4.19,5.61,5.61,0,0,1,4.94-2.74,5.31,5.31,0,0,1,4,1.68,6.75,6.75,0,0,1,1.65,4.61Zm-3-4.56a3.11,3.11,0,0,0-2.59-1.19c-2.38,0-3.54,1.94-3.59,3.86h7A4.56,4.56,0,0,0,239.4,149.12Z"/><path class="cls-1" d="M250.06,159.68c-2.83,0-3.6-1.78-3.6-3.55v-7.84h-2.53v-1.88h2.53v-3.34l2.2-.52v3.86h3.88v1.88h-3.88v7.59c0,1.26.54,1.78,1.76,1.78a16.35,16.35,0,0,0,2.25-.23v1.89A9.75,9.75,0,0,1,250.06,159.68Z"/></svg>